<svg xmlns="http://www.w3.org/2000/svg"><defs><style>.icon { display: none; }.icon:target { display: inline; }</style></defs><svg viewBox="0 0 32.090843 32.24542"><g id="src-1" class="icon"><defs><style>.covid-blue-1 { fill: rgb(53, 39, 102); }.covid-blue-2 { fill: rgb(55, 52, 125); }.covid-blue-3 { fill: rgb(56, 63, 147); }</style></defs><title>covid-icon</title><g id="_Group_" data-name=" Group "><circle id="_Ellipse_" data-name=" Ellipse " class="covid-blue-1" cx="15.99" cy="16.24" r="9.7" transform="translate(-5.86 22.74) rotate(-62.01)"/><circle id="_Ellipse_2" data-name=" Ellipse 2" class="covid-blue-2" cx="15.99" cy="16.24" r="6.79" transform="translate(-5.86 22.74) rotate(-62.01)"/><g id="_Group_2" data-name=" Group 2"><path id="_Path_" data-name=" Path " class="covid-blue-1" d="M22.12,8.87A9.8,9.8,0,0,0,18.65,7a1.12,1.12,0,0,0,1.18-.5h0l.66-1.23h0A2.54,2.54,0,1,1,24.82,5a2.64,2.64,0,0,1-2.29,1.34l-.67,1.26A1.15,1.15,0,0,0,22.12,8.87Z"/></g><g id="_Group_3" data-name=" Group 3"><path id="_Path_2" data-name=" Path 2" class="covid-blue-1" d="M25.58,15.36a9.8,9.8,0,0,0-1.15-3.76,1.12,1.12,0,0,0,1.18.48h0L27,11.66h0a2.54,2.54,0,1,1,3.2,2.86,2.64,2.64,0,0,1-2.56-.66l-1.37.42A1.15,1.15,0,0,0,25.58,15.36Z"/></g><g id="_Group_4" data-name=" Group 4"><path id="_Path_3" data-name=" Path 3" class="covid-blue-1" d="M23.35,22.38a9.8,9.8,0,0,0,1.84-3.47,1.12,1.12,0,0,0,.5,1.18h0l1.23.66h0a2.54,2.54,0,1,1,.26,4.32,2.64,2.64,0,0,1-1.34-2.29l-1.26-.67A1.15,1.15,0,0,0,23.35,22.38Z"/></g><g id="_Group_5" data-name=" Group 5"><path id="_Path_4" data-name=" Path 4" class="covid-blue-1" d="M16.86,25.83a9.8,9.8,0,0,0,3.76-1.15,1.12,1.12,0,0,0-.48,1.18h0l.42,1.34h0a2.54,2.54,0,1,1-2.86,3.2,2.64,2.64,0,0,1,.66-2.56l-.42-1.37A1.15,1.15,0,0,0,16.86,25.83Z"/></g><g id="_Group_6" data-name=" Group 6"><path id="_Path_5" data-name=" Path 5" class="covid-blue-1" d="M9.85,23.61a9.8,9.8,0,0,0,3.47,1.84,1.12,1.12,0,0,0-1.18.5h0l-.66,1.23h0a2.54,2.54,0,1,1-4.32.26,2.64,2.64,0,0,1,2.29-1.34l.67-1.26A1.15,1.15,0,0,0,9.85,23.61Z"/></g><g id="_Group_7" data-name=" Group 7"><path id="_Path_6" data-name=" Path 6" class="covid-blue-1" d="M6.39,17.12a9.8,9.8,0,0,0,1.15,3.76,1.12,1.12,0,0,0-1.18-.48h0L5,20.81H5a2.54,2.54,0,1,1-3.2-2.86,2.64,2.64,0,0,1,2.56.66l1.37-.42A1.15,1.15,0,0,0,6.39,17.12Z"/></g><g id="_Group_8" data-name=" Group 8"><path id="_Path_7" data-name=" Path 7" class="covid-blue-1" d="M8.61,10.1a9.8,9.8,0,0,0-1.84,3.47,1.12,1.12,0,0,0-.5-1.18h0L5,11.73H5A2.54,2.54,0,1,1,4.79,7.4,2.64,2.64,0,0,1,6.14,9.68l1.26.67A1.15,1.15,0,0,0,8.61,10.1Z"/></g><g id="_Group_9" data-name=" Group 9"><path id="_Path_8" data-name=" Path 8" class="covid-blue-1" d="M15.1,6.65A9.8,9.8,0,0,0,11.35,7.8a1.12,1.12,0,0,0,.5-1.15h0L11.43,5.3h0a2.54,2.54,0,1,1,2.86-3.2,2.64,2.64,0,0,1-.66,2.56L14,6A1.15,1.15,0,0,0,15.1,6.65Z"/></g><circle id="_Ellipse_3" data-name=" Ellipse 3" class="covid-blue-1" cx="3.93" cy="2.08" r="1.77" transform="translate(0.25 4.58) rotate(-62.01)"/><circle id="_Ellipse_4" data-name=" Ellipse 4" class="covid-blue-1" cx="3.9" cy="25.9" r="1.26" transform="translate(-20.8 17.18) rotate(-62.01)"/><circle id="_Ellipse_5" data-name=" Ellipse 5" class="covid-blue-1" cx="28.32" cy="30" r="1.77" transform="translate(-11.46 40.93) rotate(-62.01)"/><path id="_Path_9" data-name=" Path 9" class="covid-blue-3" d="M22.11,19.43a5.37,5.37,0,0,1-7.82,2.81A7.43,7.43,0,0,1,11.91,13a5.37,5.37,0,0,1,7.82-2.81A7.43,7.43,0,0,1,22.11,19.43Z"/><circle id="_Ellipse_6" data-name=" Ellipse 6" class="covid-blue-1" cx="14.89" cy="15.14" r="1.77" transform="translate(-5.47 21.18) rotate(-62.01)"/><circle id="_Ellipse_7" data-name=" Ellipse 7" class="covid-blue-1" cx="16.43" cy="19.32" r="0.88" transform="translate(-8.34 24.76) rotate(-62.01)"/><circle id="_Ellipse_8" data-name=" Ellipse 8" class="covid-blue-1" cx="19.26" cy="16.47" r="0.78" transform="matrix(0.47, -0.88, 0.88, 0.47, -4.33, 25.75)"/></g></g></svg><svg viewBox="0 0 32.08566 32.085407"><g id="src-2" class="icon"><defs><style>.covid-1 { fill: rgb(235, 85, 105); }.covid-2 { fill: rgb(240, 114, 129); }.covid-3 { fill: rgb(245, 138, 151); }</style></defs><title>covid-icon</title><g id="_Group_" data-name="&lt;Group&gt;"><circle id="_Ellipse_" data-name="&lt;Ellipse&gt;" class="covid-1" cx="16" cy="16" r="9.72" transform="translate(-5.64 22.62) rotate(-62.01)"/><circle id="_Ellipse_2" data-name="&lt;Ellipse&gt;" class="covid-2" cx="16" cy="16" r="6.8" transform="translate(-5.64 22.62) rotate(-62.01)"/><g id="_Group_2" data-name="&lt;Group&gt;"><path id="_Path_" data-name="&lt;Path&gt;" class="covid-1" d="M22.14,8.62a9.81,9.81,0,0,0-3.47-1.84,1.13,1.13,0,0,0,1.18-.5v0L20.52,5h0a2.54,2.54,0,1,1,4.31-.26,2.64,2.64,0,0,1-2.28,1.34l-.68,1.27A1.15,1.15,0,0,0,22.14,8.62Z"/></g><g id="_Group_3" data-name="&lt;Group&gt;"><path id="_Path_2" data-name="&lt;Path&gt;" class="covid-1" d="M25.56,15.13a9.81,9.81,0,0,0-1.15-3.75,1.13,1.13,0,0,0,1.19.48h0L27,11.43h0a2.54,2.54,0,1,1,3.24,2.86,2.64,2.64,0,0,1-2.56-.66l-1.38.42A1.15,1.15,0,0,0,25.56,15.13Z"/></g><g id="_Group_4" data-name="&lt;Group&gt;"><path id="_Path_3" data-name="&lt;Path&gt;" class="covid-1" d="M23.38,22.14a9.81,9.81,0,0,0,1.84-3.47,1.13,1.13,0,0,0,.5,1.18h0l1.23.66h0a2.54,2.54,0,1,1,.26,4.31,2.64,2.64,0,0,1-1.34-2.28l-1.27-.68A1.15,1.15,0,0,0,23.38,22.14Z"/></g><g id="_Group_5" data-name="&lt;Group&gt;"><path id="_Path_4" data-name="&lt;Path&gt;" class="covid-1" d="M16.87,25.56a9.81,9.81,0,0,0,3.75-1.15,1.13,1.13,0,0,0-.48,1.19v0L20.57,27h0a2.54,2.54,0,1,1-2.86,3.24,2.64,2.64,0,0,1,.66-2.56l-.42-1.38A1.15,1.15,0,0,0,16.87,25.56Z"/></g><g id="_Group_6" data-name="&lt;Group&gt;"><path id="_Path_5" data-name="&lt;Path&gt;" class="covid-1" d="M9.86,23.38a9.81,9.81,0,0,0,3.47,1.84,1.13,1.13,0,0,0-1.18.5v0L11.48,27h0a2.54,2.54,0,1,1-4.31.26,2.64,2.64,0,0,1,2.28-1.34l.68-1.27A1.15,1.15,0,0,0,9.86,23.38Z"/></g><g id="_Group_7" data-name="&lt;Group&gt;"><path id="_Path_6" data-name="&lt;Path&gt;" class="covid-1" d="M6.44,16.87a9.81,9.81,0,0,0,1.15,3.75,1.13,1.13,0,0,0-1.19-.48h0L5,20.57H5A2.54,2.54,0,1,1,1.8,17.69a2.64,2.64,0,0,1,2.56.66l1.38-.42A1.15,1.15,0,0,0,6.44,16.87Z"/></g><g id="_Group_8" data-name="&lt;Group&gt;"><path id="_Path_7" data-name="&lt;Path&gt;" class="covid-1" d="M8.62,9.86a9.81,9.81,0,0,0-1.84,3.47,1.13,1.13,0,0,0-.5-1.18h0L5,11.48H5a2.54,2.54,0,1,1-.26-4.31A2.64,2.64,0,0,1,6.11,9.43l1.27.68A1.15,1.15,0,0,0,8.62,9.86Z"/></g><g id="_Group_9" data-name="&lt;Group&gt;"><path id="_Path_8" data-name="&lt;Path&gt;" class="covid-1" d="M15.13,6.44a9.81,9.81,0,0,0-3.75,1.15,1.13,1.13,0,0,0,.48-1.19v0L11.43,5h0A2.54,2.54,0,1,1,14.31,1.8a2.64,2.64,0,0,1-.66,2.56l.42,1.38A1.15,1.15,0,0,0,15.13,6.44Z"/></g><circle id="_Ellipse_3" data-name="&lt;Ellipse&gt;" class="covid-1" cx="3.94" cy="1.83" r="1.77" transform="translate(0.48 4.45) rotate(-62.01)"/><circle id="_Ellipse_4" data-name="&lt;Ellipse&gt;" class="covid-1" cx="3.91" cy="25.66" r="1.27" transform="translate(-20.59 17.07) rotate(-62.01)"/><circle id="_Ellipse_5" data-name="&lt;Ellipse&gt;" class="covid-1" cx="28.35" cy="29.77" r="1.77" transform="translate(-11.24 40.83) rotate(-62.01)"/><path id="_Path_9" data-name="&lt;Path&gt;" class="covid-3" d="M22.13,19.19c-1.5,3.32-5,4.58-7.82,2.81s-3.89-5.88-2.39-9.2,5-4.58,7.82-2.81S23.63,15.87,22.13,19.19Z"/><circle id="_Ellipse_6" data-name="&lt;Ellipse&gt;" class="covid-1" cx="14.91" cy="14.91" r="1.77" transform="translate(-5.26 21.08) rotate(-62.01)"/><circle id="_Ellipse_7" data-name="&lt;Ellipse&gt;" class="covid-1" cx="16.45" cy="19.09" r="0.88" transform="translate(-8.13 24.65) rotate(-62.01)"/><circle id="_Ellipse_8" data-name="&lt;Ellipse&gt;" class="covid-1" cx="19.29" cy="16.22" r="0.78" transform="translate(-4.09 25.64) rotate(-62.01)"/></g></g></svg><svg viewBox="0 0 32 29.984121"><g id="src-3" class="icon">
<defs><style>.share-1 { fill: none; }.share-2 { clip-path: url("#clip-path"); }.share-3 { fill: rgb(255, 255, 255); }.share-4 { fill: rgb(44, 73, 141); }</style>
<clipPath id="clip-path"><rect class="share-1" y="2" width="32" height="28"/></clipPath></defs>
<title>share_icon</title>
<g class="share-2"><path class="share-3" d="M16,14.4a5.26,5.26,0,0,0-5.15,4.35h10.3A5.26,5.26,0,0,0,16,14.4"/>
<path class="share-3" d="M16,7a2.8,2.8,0,1,0,2.77,2.83v0A2.78,2.78,0,0,0,16,7h0"/>
<path class="share-3" d="M29.23,2H2.77A2.78,2.78,0,0,0,0,4.8H0V22.22A2.78,2.78,0,0,0,2.77,25h9.07l3.41,4.61a.91.91,0,0,0,1.47,0L20.13,25H29.2A2.78,2.78,0,0,0,32,22.26s0,0,0,0V4.8A2.78,2.78,0,0,0,29.23,2h0M22.16,20.67H9.84a.93.93,0,0,1-.93-.93,7.17,7.17,0,0,1,4-6.4,4.61,4.61,0,1,1,6.1,0,7.17,7.17,0,0,1,4,6.4.93.93,0,0,1-.93.93"/></g>
<path class="share-4" d="M30.56,7.26h-3.2V4a.75.75,0,1,0-1.49,0v3.3h-3.2a.75.75,0,1,0,0,1.5h3.2v3.3a.75.75,0,1,0,1.49,0V8.77h3.2a.75.75,0,0,0,0-1.5Z"/></g></svg><svg viewBox="0 0 24.339998 31.87525"><g id="src-4" class="icon"><defs><style>.keyicon { fill: rgb(255, 255, 255); }</style></defs><title>login-reg-icon</title><path class="keyicon" d="M24.34,8.34a8.34,8.34,0,1,0-10.17,8.13V30.16a1.84,1.84,0,0,0,3.67,0v-.59h2.47a1.22,1.22,0,1,0,0-2.43h0a.43.43,0,0,1-.43-.43V26a.43.43,0,0,1,.43-.43h0a1.22,1.22,0,1,0,0-2.43H17.84V16.47A8.35,8.35,0,0,0,24.34,8.34ZM16,13a4.69,4.69,0,1,1,4.69-4.69A4.69,4.69,0,0,1,16,13Z"/></g></svg><svg viewBox="0 0 24.339998 31.87525"><g id="src-5" class="icon"><defs><style>.access-blue { fill: rgb(57, 84, 148); }</style></defs><title>access_icon</title><path class="access-blue" d="M24.34,8.34a8.34,8.34,0,1,0-10.17,8.13V30.16a1.84,1.84,0,0,0,3.67,0v-.59h2.47a1.22,1.22,0,1,0,0-2.43h0a.43.43,0,0,1-.43-.43V26a.43.43,0,0,1,.43-.43h0a1.22,1.22,0,1,0,0-2.43H17.84V16.47A8.35,8.35,0,0,0,24.34,8.34ZM16,13a4.69,4.69,0,1,1,4.69-4.69A4.69,4.69,0,0,1,16,13Z"/></g></svg><svg viewBox="0 0 32.032238 28.11226"><g id="src-6" class="icon"><defs><style>.campaign-icon { fill: rgb(255, 255, 255); }</style></defs><title>campaign-icon</title><g id="Email_maketing" data-name="Email maketing"><path class="campaign-icon" d="M19.79,5.23l1.55-.42,4.17,15.54L24,20.77Z"/><path class="campaign-icon" d="M8.54,13l1.79,6.69,12,1.16L18.33,6Z"/><path class="campaign-icon" d="M8.63,28a.8.8,0,0,0,1.18-.9L8.35,21.62,6.8,22l1.46,5.44A.8.8,0,0,0,8.63,28Z"/><path class="campaign-icon" d="M7.05,13.65,2.39,14.9a3.22,3.22,0,1,0,1.67,6.22l4.67-1.25Z"/><path class="campaign-icon" d="M26.53,11.76a.8.8,0,0,0,.78.6l.21,0,3.11-.83a.8.8,0,1,0-.42-1.55l-3.11.83a.8.8,0,0,0-.57,1Z"/><path class="campaign-icon" d="M25.59,7.82a.8.8,0,0,0,.57-.24l2.28-2.28a.8.8,0,0,0-1.12-1.16l0,0L25,6.44a.8.8,0,0,0,.57,1.37Z"/><path class="campaign-icon" d="M27.31,16.13a.8.8,0,0,0,.57,1h0l3.11.83.21,0a.8.8,0,0,0,.21-1.58l-3.11-.83a.8.8,0,0,0-1,.57h0Z"/></g></g></svg><svg viewBox="0 0 32.032238 28.11226"><g id="src-7" class="icon"><defs><style>.campaign-blue-icon { fill: rgb(29, 58, 124); }</style></defs><title>campaign-icon</title><g id="Email_maketing" data-name="Email maketing"><path class="campaign-blue-icon" d="M19.79,5.23l1.55-.42,4.17,15.54L24,20.77Z"/><path class="campaign-blue-icon" d="M8.54,13l1.79,6.69,12,1.16L18.33,6Z"/><path class="campaign-blue-icon" d="M8.63,28a.8.8,0,0,0,1.18-.9L8.35,21.62,6.8,22l1.46,5.44A.8.8,0,0,0,8.63,28Z"/><path class="campaign-blue-icon" d="M7.05,13.65,2.39,14.9a3.22,3.22,0,1,0,1.67,6.22l4.67-1.25Z"/><path class="campaign-blue-icon" d="M26.53,11.76a.8.8,0,0,0,.78.6l.21,0,3.11-.83a.8.8,0,1,0-.42-1.55l-3.11.83a.8.8,0,0,0-.57,1Z"/><path class="campaign-blue-icon" d="M25.59,7.82a.8.8,0,0,0,.57-.24l2.28-2.28a.8.8,0,0,0-1.12-1.16l0,0L25,6.44a.8.8,0,0,0,.57,1.37Z"/><path class="campaign-blue-icon" d="M27.31,16.13a.8.8,0,0,0,.57,1h0l3.11.83.21,0a.8.8,0,0,0,.21-1.58l-3.11-.83a.8.8,0,0,0-1,.57h0Z"/></g></g></svg>
<!-- <svg viewBox="0 0 444.6684 491.97998"><g id="src-8" class="icon"><defs><style>.dicon { fill: rgb(255, 255, 255); }</style></defs><title>disabled</title><g id="_Group_" data-name="&lt;Group&gt;"><path id="_Path_" data-name="&lt;Path&gt;" class="dicon" d="M225.32,97a48.48,48.48,0,1,0-48.49-48.48A48.5,48.5,0,0,0,225.32,97Z"/><path id="_Path_2" data-name="&lt;Path&gt;" class="dicon" d="M300.23,371.69A107.16,107.16,0,1,1,154.14,244V198.58C92.45,217.16,47.38,274.43,47.38,342.08c0,82.65,67.25,149.9,149.91,149.9,60.24,0,112.16-35.8,136-87.17l-16.93-33.26Z"/><path id="_Path_3" data-name="&lt;Path&gt;" class="dicon" d="M441.48,429.24,376.54,301.57A28.43,28.43,0,0,0,351.18,286H268V267h71.58a22.39,22.39,0,0,0,21.35-21.35,21.35,21.35,0,0,0-21.35-21.35H268V160c0-17.69-13.12-42.7-42.69-42.7a42.71,42.71,0,0,0-42.7,42.7V299.37a43.56,43.56,0,0,0,43.56,43.56H333.72l57,112.12a28.46,28.46,0,1,0,50.73-25.81Z"/></g></g></svg> -->
<svg  viewBox="0 0 23 26" fill="none"><g id="src-9" class="icon">
<path d="M20.8409 7.36127H2.03326C1.4626 7.36127 1 7.82387 1 8.39452C1 8.96518 1.4626 9.42778 2.03326 9.42778H7.0363C7.64837 9.42778 8.11683 9.97271 8.02497 10.5778L6.08634 23.35C5.95888 24.1897 6.52224 24.9786 7.35787 25.1305C8.20545 25.2846 9.01892 24.7271 9.18094 23.881L10.4614 17.1943C10.6655 16.1285 12.1829 16.1053 12.4195 17.1644L13.9763 24.1331C14.1338 24.8379 14.8324 25.2819 15.5373 25.1253C16.2134 24.975 16.6553 24.324 16.5454 23.6402L14.4475 10.5865C14.3498 9.97866 14.8193 9.42778 15.4349 9.42778H20.8409C21.4115 9.42778 21.8741 8.96518 21.8741 8.39452C21.8741 7.82387 21.4115 7.36127 20.8409 7.36127Z" stroke="black"/>
<circle cx="11.2309" cy="3.00672" r="2.50672" stroke="black"/></g></svg>
<!-- <svg viewBox="0 0 444.6684 491.97998"><g id="src-9" class="icon"><defs><style>.disable-blue { fill: rgb(57, 84, 148); }</style></defs><title>disabled</title><g id="_Group_" data-name="&lt;Group&gt;"><path id="_Path_" data-name="&lt;Path&gt;" class="disable-blue" d="M225.32,97a48.48,48.48,0,1,0-48.49-48.48A48.5,48.5,0,0,0,225.32,97Z"/><path id="_Path_2" data-name="&lt;Path&gt;" class="disable-blue" d="M300.23,371.69A107.16,107.16,0,1,1,154.14,244V198.58C92.45,217.16,47.38,274.43,47.38,342.08c0,82.65,67.25,149.9,149.91,149.9,60.24,0,112.16-35.8,136-87.17l-16.93-33.26Z"/><path id="_Path_3" data-name="&lt;Path&gt;" class="disable-blue" d="M441.48,429.24,376.54,301.57A28.43,28.43,0,0,0,351.18,286H268V267h71.58a22.39,22.39,0,0,0,21.35-21.35,21.35,21.35,0,0,0-21.35-21.35H268V160c0-17.69-13.12-42.7-42.69-42.7a42.71,42.71,0,0,0-42.7,42.7V299.37a43.56,43.56,0,0,0,43.56,43.56H333.72l57,112.12a28.46,28.46,0,1,0,50.73-25.81Z"/></g></g></svg> -->
<svg viewBox="0 0 23 26" fill="none"><g id="src-8" class="icon">
<path d="M20.8409 7.36121H2.03326C1.4626 7.36121 1 7.82381 1 8.39446C1 8.96511 1.4626 9.42772 2.03326 9.42772H7.0363C7.64837 9.42772 8.11683 9.97264 8.02497 10.5778L6.08634 23.35C5.95888 24.1897 6.52224 24.9785 7.35787 25.1305C8.20545 25.2846 9.01892 24.727 9.18094 23.8809L10.4614 17.1943C10.6655 16.1284 12.1829 16.1052 12.4195 17.1643L13.9763 24.1331C14.1338 24.8378 14.8324 25.2819 15.5373 25.1252C16.2134 24.975 16.6553 24.3239 16.5454 23.6401L14.4475 10.5864C14.3498 9.9786 14.8193 9.42772 15.4349 9.42772H20.8409C21.4115 9.42772 21.8741 8.96511 21.8741 8.39446C21.8741 7.82381 21.4115 7.36121 20.8409 7.36121Z" stroke="white"/>
<circle cx="11.2309" cy="3.00672" r="2.50672" stroke="white"/></g></svg>
<svg viewBox="0 0 32.007347 31.961626"><g id="src-10" class="icon"><defs><style>.language-blue { fill: rgb(57, 84, 148); }</style></defs><title>language_icon</title><path class="language-blue" d="M14,7.32h0a.66.66,0,0,0-.66.66v3.36h-.69v-.06A4.52,4.52,0,0,0,8,7.33a.66.66,0,1,0,.1,1.31,3.2,3.2,0,0,1,3.29,2.7H4.66a.66.66,0,0,0-.49.22.65.65,0,0,0-.16.5A4.4,4.4,0,0,0,5.63,15a4.34,4.34,0,0,0,2.71,1l.4,0a4.52,4.52,0,0,0,3.81-3.3h.81v2.66a.66.66,0,0,0,1.31,0V8A.66.66,0,0,0,14,7.32ZM8.59,14.65A3,3,0,0,1,6.45,14a3.14,3.14,0,0,1-1-1.31h5.68a3.18,3.18,0,0,1-2.58,2Zm18,6.92-3.3-6.52a.66.66,0,0,0-.58-.36.65.65,0,0,0-.58.36l-3.35,6.67a.65.65,0,0,0,.29.88h0a.67.67,0,0,0,.3.07.64.64,0,0,0,.58-.36L21.11,20h3.24l1.09,2.15a.65.65,0,0,0,.88.29h0a.66.66,0,0,0,.29-.89h0ZM21.77,18.7l1-1.9,1,1.9H21.77Zm10.12-.83A9.29,9.29,0,0,0,18.61,11,9.34,9.34,0,1,0,9.36,21.32a9.24,9.24,0,0,0,4.05-.93,9.39,9.39,0,0,0,6.93,8h0a9.52,9.52,0,0,0,2.26.28,9.39,9.39,0,0,0,9.28-10.82ZM9.36,20a8,8,0,1,1,8-8v0A8,8,0,0,1,9.36,20Zm20.33,3.2a8,8,0,0,1-15-3.56,9.34,9.34,0,0,0,4-7.23,8,8,0,0,1,11,10.79Zm-17,4.72h0l0-.07h0l0-.07v0l0,0v0l0-.06-.05-.06h0l0,0h0l0,0h0l-.07,0L8.92,26.07a.65.65,0,0,0-.49,1.21l2.24.9a4.44,4.44,0,0,1-4,.1h0A4.56,4.56,0,0,1,4,24a.66.66,0,0,0-1.31,0,5.86,5.86,0,0,0,3.38,5.47A5.73,5.73,0,0,0,8.55,30a5.82,5.82,0,0,0,2.1-.4l-.6,1.46a.65.65,0,0,0,.61.9.66.66,0,0,0,.61-.41l1.35-3.31v0a0,0,0,0,1,0,0h0a.2.2,0,0,0,0-.05,0,0,0,0,1,0,0s0-.05,0-.08V28s0,0,0-.06ZM19.37,4.09h0l0,.07h0l0,.07v0l0,0v0l0,.06.05.06h0l0,0h0l0,0h0l.07,0,3.35,1.35a.65.65,0,0,0,.49-1.21l-2.24-.9a4.44,4.44,0,0,1,4-.1h0A4.56,4.56,0,0,1,28,8a.65.65,0,0,0,.64.67h0A.66.66,0,0,0,29.33,8a5.86,5.86,0,0,0-3.38-5.48h0a5.73,5.73,0,0,0-4.56-.16L22,.91A.66.66,0,0,0,20.76.42h0L19.41,3.73v0a.2.2,0,0,0,0,.05,0,0,0,0,1,0,0s0,.05,0,.08V4s0,0,0,.06Z"/></g></svg>
<svg viewBox="0 0 23 26" fill="none"><g id="src-11" class="icon"><path d="M1.90516 12.2081H0L4.2808 0H6.3544L10.6352 12.2081H8.73004L5.36697 2.21749H5.27403L1.90516 12.2081ZM2.22462 7.42738H8.40477V8.97724H2.22462V7.42738Z" fill="white"/>
<path d="M18.1035 17.7307C18.1035 18.6446 17.8109 19.3235 17.2257 19.7674C16.6532 20.2113 15.9408 20.4333 15.0884 20.4333C13.9944 20.4333 13.0212 20.0155 12.1688 19.1799C11.3165 18.3444 10.4896 16.9604 9.68808 15.0282L11.0429 14.519C11.59 15.9029 12.1815 16.9996 12.8176 17.8091C13.4537 18.6055 14.1661 19.0037 14.9549 19.0037C15.4383 19.0037 15.8327 18.8927 16.138 18.6708C16.4433 18.4357 16.596 18.0637 16.596 17.5545C16.596 17.0714 16.4624 16.6406 16.1952 16.2619C15.9408 15.8833 15.61 15.5308 15.2029 15.2044C14.8595 15.2697 14.4905 15.3089 14.0962 15.3219L14.0007 13.9511C14.8658 13.9249 15.4765 13.7683 15.8327 13.481C16.2016 13.1938 16.3861 12.8087 16.3861 12.3256C16.3861 11.8556 16.2334 11.5161 15.9281 11.3072C15.6355 11.0983 15.292 10.9939 14.8976 10.9939C14.4269 10.9939 14.0007 11.0592 13.6191 11.1897C13.2374 11.3203 12.8303 11.4965 12.3978 11.7185L11.9207 10.3672C12.2515 10.1844 12.6586 10.0147 13.142 9.85803C13.6382 9.70136 14.1979 9.62303 14.8213 9.62303C15.8136 9.62303 16.5705 9.87762 17.0921 10.3868C17.6264 10.896 17.8936 11.5357 17.8936 12.306C17.8936 13.3244 17.4674 14.1077 16.6151 14.6561C16.755 14.7866 16.8822 14.9172 16.9967 15.0477C17.4801 15.113 17.9508 15.1457 18.4088 15.1457C18.8159 15.1457 19.1785 15.1261 19.4965 15.0869C19.8146 15.0477 20.139 14.9825 20.4697 14.8911V11.2093H19.0767V9.81887H24V11.2093H22.0154V22H20.4697V16.3207C20.1644 16.399 19.8654 16.4578 19.5728 16.4969C19.2802 16.5231 18.9686 16.5361 18.6378 16.5361C18.4215 16.5361 18.148 16.5165 17.8173 16.4774C18.0081 16.869 18.1035 17.2868 18.1035 17.7307Z" fill="white"/></g></svg><svg viewBox="0 0 32 32"><g id="src-12" class="icon"><defs><style>.menu-1 { fill: rgb(255, 255, 255); }</style></defs><title>menunew</title><rect class="menu-1" y="23.11" width="32" height="3.56"/><rect class="menu-1" y="14.22" width="32" height="3.56"/><rect class="menu-1" y="5.33" width="32" height="3.56"/></g></svg><svg viewBox="0 0 32 32.001846"><g id="src-13" class="icon"><defs><style>.newsletter-icon { fill: rgb(255, 255, 255); }</style></defs><title>newsletter-icon</title><path class="newsletter-icon" d="M21,3.44,17.59.58a2.45,2.45,0,0,0-3.17,0L11,3.44Z"/><path class="newsletter-icon" d="M2.88,12.56l12.74,10a.62.62,0,0,0,.77,0l12.74-10v-6a1.25,1.25,0,0,0-1.25-1.25H4.13A1.25,1.25,0,0,0,2.88,6.56Zm20.91,1.51a.94.94,0,0,1-.94.94H9.16a.94.94,0,0,1,0-1.87H22.84A.94.94,0,0,1,23.78,14.06ZM18,9.38a.94.94,0,0,1,0,1.88H9.16a.94.94,0,0,1,0-1.87Z"/><path class="newsletter-icon" d="M29.5,32a2.5,2.5,0,0,0,.74-.11L18.47,23.45l-.12-.1-.81.63a2.5,2.5,0,0,1-3.08,0l-.81-.63-.12.1L1.76,31.89A2.5,2.5,0,0,0,2.5,32Z"/><path class="newsletter-icon" d="M32,12.69,19.88,22.16l11.84,8.49A2.49,2.49,0,0,0,32,29.5Z"/><path class="newsletter-icon" d="M12.12,22.16,0,12.69V29.5a2.49,2.49,0,0,0,.28,1.15Z"/></g></svg><svg viewBox="0 0 32 32.001846"><g id="src-14" class="icon"><defs><style>.newsletter-blue { fill: rgb(29, 58, 124); }</style></defs><title>newsletter-icon</title><path class="newsletter-blue" d="M21,3.44,17.59.58a2.45,2.45,0,0,0-3.17,0L11,3.44Z"/><path class="newsletter-blue" d="M2.88,12.56l12.74,10a.62.62,0,0,0,.77,0l12.74-10v-6a1.25,1.25,0,0,0-1.25-1.25H4.13A1.25,1.25,0,0,0,2.88,6.56Zm20.91,1.51a.94.94,0,0,1-.94.94H9.16a.94.94,0,0,1,0-1.87H22.84A.94.94,0,0,1,23.78,14.06ZM18,9.38a.94.94,0,0,1,0,1.88H9.16a.94.94,0,0,1,0-1.87Z"/>
<path class="newsletter-blue" d="M29.5,32a2.5,2.5,0,0,0,.74-.11L18.47,23.45l-.12-.1-.81.63a2.5,2.5,0,0,1-3.08,0l-.81-.63-.12.1L1.76,31.89A2.5,2.5,0,0,0,2.5,32Z"/><path class="newsletter-blue" d="M32,12.69,19.88,22.16l11.84,8.49A2.49,2.49,0,0,0,32,29.5Z"/><path class="newsletter-blue" d="M12.12,22.16,0,12.69V29.5a2.49,2.49,0,0,0,.28,1.15Z"/></g></svg><svg viewBox="0 0 28 32"><g id="src-15" class="icon"><defs><style>.notifi { fill: rgb(255, 255, 255); }</style></defs><title>notification_icon</title><path id="Shape_1_copy_3" data-name="Shape 1 copy 3" class="notifi" d="M16,32a3.66,3.66,0,0,1-3.55-3.76h7.1A3.66,3.66,0,0,1,16,32Zm12-7.53h0C28,25.86,26.94,26,25.62,26H6.37C5.06,26,4,25.86,4,24.47v-.24A2.52,2.52,0,0,1,5.35,22l.75-6.89A10.35,10.35,0,0,1,14,4.83V2.15a2,2,0,1,1,4.07,0V4.83A10.35,10.35,0,0,1,25.9,15.08L26.65,22A2.52,2.52,0,0,1,28,24.24v.24Z"/></g></svg><svg viewBox="0 0 28 32"><g id="src-16" class="icon"><defs><style>.notification-blue { fill: rgb(29, 58, 124); }</style></defs><title>notification_icon</title><path id="Shape_1_copy_3" data-name="Shape 1 copy 3" class="notification-blue" d="M16,32a3.66,3.66,0,0,1-3.55-3.76h7.1A3.66,3.66,0,0,1,16,32Zm12-7.53h0C28,25.86,26.94,26,25.62,26H6.37C5.06,26,4,25.86,4,24.47v-.24A2.52,2.52,0,0,1,5.35,22l.75-6.89A10.35,10.35,0,0,1,14,4.83V2.15a2,2,0,1,1,4.07,0V4.83A10.35,10.35,0,0,1,25.9,15.08L26.65,22A2.52,2.52,0,0,1,28,24.24v.24Z"/></g></svg><svg viewBox="0 0 32.047485 32.047474"><g id="src-17" class="icon"><defs><style>.search-icon { fill: rgb(49, 49, 49); }</style></defs><title>search</title><path class="search-icon" d="M31.61,29.72l-9.1-9.1a12.69,12.69,0,1,0-1.89,1.89l9.1,9.1a1.33,1.33,0,1,0,1.89-1.89ZM12.67,22.67a10,10,0,1,1,10-10A10,10,0,0,1,12.67,22.67Z"/></g></svg><svg viewBox="0 0 32.047485 32.047474"><g id="src-18" class="icon"><defs><style>.search-blue-icon { fill: rgb(29, 58, 124); }</style></defs><title>search</title><path class="search-blue-icon" d="M31.61,29.72l-9.1-9.1a12.69,12.69,0,1,0-1.89,1.89l9.1,9.1a1.33,1.33,0,1,0,1.89-1.89ZM12.67,22.67a10,10,0,1,1,10-10A10,10,0,0,1,12.67,22.67Z"/></g></svg>
<svg viewBox="0 0 32 32">
<g id="src-19" class="icon">
<defs><style>.share-blue-1{fill:none;}.share-blue-2{clip-path:url(#clip-path);}.share-blue-3{fill:#2c498d;}.share-blue-4{fill:#fff;}</style>
<clipPath id="clip-path"><rect class="share-blue-1" y="2" width="32" height="28"/></clipPath></defs>
<title>share-blue_icon</title>
<g class="share-blue-2"><path class="share-blue-3" d="M16,14.4a5.26,5.26,0,0,0-5.15,4.35h10.3A5.26,5.26,0,0,0,16,14.4"/>
<path class="share-blue-3" d="M16,7a2.8,2.8,0,1,0,2.77,2.83v0A2.78,2.78,0,0,0,16,7h0"/>
<path class="share-blue-3" d="M29.23,2H2.77A2.78,2.78,0,0,0,0,4.8H0V22.22A2.78,2.78,0,0,0,2.77,25h9.07l3.41,4.61a.91.91,0,0,0,1.47,0L20.13,25H29.2A2.78,2.78,0,0,0,32,22.26s0,0,0,0V4.8A2.78,2.78,0,0,0,29.23,2h0M22.16,20.67H9.84a.93.93,0,0,1-.93-.93,7.17,7.17,0,0,1,4-6.4,4.61,4.61,0,1,1,6.1,0,7.17,7.17,0,0,1,4,6.4.93.93,0,0,1-.93.93"/></g>
<path class="share-blue-4" d="M30.56,7.26h-3.2V4a.75.75,0,1,0-1.49,0v3.3h-3.2a.75.75,0,1,0,0,1.5h3.2v3.3a.75.75,0,1,0,1.49,0V8.77h3.2a.75.75,0,0,0,0-1.5Z"/>
</g>
</svg>
	
<svg viewBox="0 0 32 32"><g id="quiz-white" class="icon">
<style type="text/css">
	.q1{fill:#FFFFFF;}
</style>
<path class="q1" d="M31.9,15.3C31.9,6.9,24.8,0,16,0C7.2,0,0.1,6.9,0.1,15.4c0,8.5,7.1,15.4,15.9,15.4c2.8,0,5.5-0.7,7.9-2.1
	l2.9,3.3l4.8-3.9l-3-3.5C30.8,22,31.9,18.7,31.9,15.3z M24.8,20.2L23,18.1L18.2,22l2,2.3c-1.3,0.6-2.8,0.9-4.2,0.9
	c-5.6,0-10.2-4.4-10.2-9.8c0-5.4,4.6-9.8,10.2-9.8c5.6,0,10.2,4.4,10.2,9.8C26.2,17.1,25.7,18.8,24.8,20.2z"/></g>
</svg>	
<svg viewBox="0 0 32 32"><g id="quiz-blue" class="icon">
<style type="text/css">
	.qb{fill:#1D3A7C;}
</style>
<path class="qb" d="M31.9,15.3C31.9,6.9,24.8,0,16,0S0.1,6.9,0.1,15.4S7.2,30.8,16,30.8c2.8,0,5.5-0.7,7.9-2.1l2.9,3.3l4.8-3.9
	l-3-3.5C30.8,22,31.9,18.7,31.9,15.3z M24.8,20.2L23,18.1L18.2,22l2,2.3c-1.3,0.6-2.8,0.9-4.2,0.9c-5.6,0-10.2-4.4-10.2-9.8
					S10.4,5.6,16,5.6s10.2,4.4,10.2,9.8C26.2,17.1,25.7,18.8,24.8,20.2z"/> </g>
</svg>
<svg viewBox="0 0 32 32"><g id="podcast-white" class="icon"><defs><style>.podcast-w{fill:#fff;}</style></defs><title>podcast_header-white</title>
<path class="podcast-w" d="M23.86,21.1a.92.92,0,0,0,1.28-.23l0-.05A10.9,10.9,0,0,0,27,14.68a11,11,0,1,0-22,0,10.9,10.9,0,0,0,1.84,6.14.92.92,0,1,0,1.52-1h0a9.18,9.18,0,1,1,15.23,0,.92.92,0,0,0,.23,1.28l.05,0Z"/>
<path class="podcast-w" d="M4.26,23.48a.92.92,0,1,0,1.47-1.1,12.84,12.84,0,1,1,23.11-7.7,12.73,12.73,0,0,1-2.58,7.7.92.92,0,0,0,.18,1.28h0a.92.92,0,0,0,1.28-.18,14.68,14.68,0,1,0-26.42-8.8,14.55,14.55,0,0,0,2.95,8.8Z"/>
<path class="podcast-w" d="M16.35,24.76A3.32,3.32,0,0,1,13,21.45V10.72a3.31,3.31,0,1,1,6.63,0V21.56a3.3,3.3,0,0,1-3.31,3.2Z"/>
<path class="podcast-w" d="M10.82,19.58h.69a.41.41,0,0,1,.43.43v1.38a4.41,4.41,0,0,0,8.82,0V20a.41.41,0,0,1,.43-.43h.69a.41.41,0,0,1,.43.43v1.38a6,6,0,0,1-5.19,5.87v3.2h3a.41.41,0,0,1,.43.43v.69a.41.41,0,0,1-.43.43h-7.6a.41.41,0,0,1-.43-.43v-.69a.41.41,0,0,1,.43-.43h3v-3.2a6,6,0,0,1-5.19-5.87V20a.49.49,0,0,1,.45-.43Z"/>
</g></svg>
<svg viewBox="0 0 32 32"><g id="podcast-blue" class="icon">
<defs><style>.podcast-bl{fill:#1d3a7c;}</style></defs><title>podcast_header-blue</title>
<path class="podcast-bl" d="M23.86,21.1a.92.92,0,0,0,1.28-.23l0-.05A10.9,10.9,0,0,0,27,14.68a11,11,0,1,0-22,0,10.9,10.9,0,0,0,1.84,6.14.92.92,0,1,0,1.52-1h0a9.18,9.18,0,1,1,15.23,0,.92.92,0,0,0,.23,1.28l.05,0Z"/>
<path class="podcast-bl" d="M4.26,23.48a.92.92,0,1,0,1.47-1.1,12.84,12.84,0,1,1,23.11-7.7,12.73,12.73,0,0,1-2.58,7.7.92.92,0,0,0,.18,1.28h0a.92.92,0,0,0,1.28-.18,14.68,14.68,0,1,0-26.42-8.8,14.55,14.55,0,0,0,2.95,8.8Z"/>
<path class="podcast-bl" d="M16.35,24.76A3.32,3.32,0,0,1,13,21.45V10.72a3.31,3.31,0,1,1,6.63,0V21.56a3.3,3.3,0,0,1-3.31,3.2Z"/>
<path class="podcast-bl" d="M10.82,19.58h.69a.41.41,0,0,1,.43.43v1.38a4.41,4.41,0,0,0,8.82,0V20a.41.41,0,0,1,.43-.43h.69a.41.41,0,0,1,.43.43v1.38a6,6,0,0,1-5.19,5.87v3.2h3a.41.41,0,0,1,.43.43v.69a.41.41,0,0,1-.43.43h-7.6a.41.41,0,0,1-.43-.43v-.69a.41.41,0,0,1,.43-.43h3v-3.2a6,6,0,0,1-5.19-5.87V20a.49.49,0,0,1,.45-.43Z"/></g></svg>
<svg viewBox="0 0 32 32"><g id="social-white" class="icon"><defs><style>.social-w{fill:#fff;}</style></defs><title>social-icon</title><path class="social-w" d="M27.47,16c0,.26,0,.52,0,.78a5.43,5.43,0,0,1,1.83.58q.07-.67.07-1.36t-.07-1.36a5.43,5.43,0,0,1-1.83.58c0,.26,0,.52,0,.78Z"/><path class="social-w" d="M22.4,25.52a11.48,11.48,0,0,1-1.35.78,5.43,5.43,0,0,1,.42,1.88,13.23,13.23,0,0,0,2.35-1.36,5.43,5.43,0,0,1-1.42-1.3Z"/><path class="social-w" d="M9.61,6.48A11.48,11.48,0,0,1,11,5.7a5.43,5.43,0,0,1-.42-1.88A13.23,13.23,0,0,0,8.19,5.18a5.43,5.43,0,0,1,1.42,1.3Z"/><path class="social-w" d="M22.4,6.48a5.43,5.43,0,0,1,1.42-1.3,13.23,13.23,0,0,0-2.35-1.36,5.43,5.43,0,0,1-.42,1.88A11.46,11.46,0,0,1,22.4,6.48Z"/><path class="social-w" d="M9.61,25.52a5.43,5.43,0,0,1-1.42,1.3,13.23,13.23,0,0,0,2.35,1.36A5.43,5.43,0,0,1,11,26.3a11.47,11.47,0,0,1-1.35-.78Z"/><path class="social-w" d="M4.54,16c0-.26,0-.52,0-.78a5.43,5.43,0,0,1-1.83-.58A13.57,13.57,0,0,0,2.66,16q0,.68.07,1.36a5.43,5.43,0,0,1,1.83-.58C4.55,16.52,4.54,16.26,4.54,16Z"/><circle class="social-w" cx="16.01" cy="16" r="6"/><path class="social-w" d="M16,0a3.59,3.59,0,1,1-3.59,3.59A3.59,3.59,0,0,1,16,0"/><circle class="social-w" cx="5.26" cy="9.8" r="3.59" transform="translate(-5.39 6.59) rotate(-45)"/><circle class="social-w" cx="5.25" cy="22.2" r="3.59" transform="translate(-16.54 15.45) rotate(-59.46)"/><circle class="social-w" cx="16.01" cy="28.41" r="3.59"/><circle class="social-w" cx="26.74" cy="22.21" r="3.59" transform="translate(-5.33 8.81) rotate(-17.04)"/><circle class="social-w" cx="26.75" cy="9.8" r="3.59" transform="translate(0.9 21.78) rotate(-45)"/></g></svg>
<svg viewBox="0 0 32 32"><g id="social-blue" class="icon"><defs><style>.social-b{fill:#1d3a7c;}</style></defs><title>social-blue</title><path class="social-b" d="M27.47,16c0,.26,0,.52,0,.78a5.43,5.43,0,0,1,1.83.58q.07-.67.07-1.36t-.07-1.36a5.43,5.43,0,0,1-1.83.58c0,.26,0,.52,0,.78Z"/><path class="social-b" d="M22.4,25.52a11.48,11.48,0,0,1-1.35.78,5.43,5.43,0,0,1,.42,1.88,13.23,13.23,0,0,0,2.35-1.36,5.43,5.43,0,0,1-1.42-1.3Z"/><path class="social-b" d="M9.61,6.48A11.48,11.48,0,0,1,11,5.7a5.43,5.43,0,0,1-.42-1.88A13.23,13.23,0,0,0,8.19,5.18a5.43,5.43,0,0,1,1.42,1.3Z"/><path class="social-b" d="M22.4,6.48a5.43,5.43,0,0,1,1.42-1.3,13.23,13.23,0,0,0-2.35-1.36,5.43,5.43,0,0,1-.42,1.88A11.46,11.46,0,0,1,22.4,6.48Z"/><path class="social-b" d="M9.61,25.52a5.43,5.43,0,0,1-1.42,1.3,13.23,13.23,0,0,0,2.35,1.36A5.43,5.43,0,0,1,11,26.3a11.47,11.47,0,0,1-1.35-.78Z"/><path class="social-b" d="M4.54,16c0-.26,0-.52,0-.78a5.43,5.43,0,0,1-1.83-.58A13.57,13.57,0,0,0,2.66,16q0,.68.07,1.36a5.43,5.43,0,0,1,1.83-.58C4.55,16.52,4.54,16.26,4.54,16Z"/><circle class="social-b" cx="16.01" cy="16" r="6"/><path class="social-b" d="M16,0a3.59,3.59,0,1,1-3.59,3.59A3.59,3.59,0,0,1,16,0"/><circle class="social-b" cx="5.26" cy="9.8" r="3.59" transform="translate(-5.39 6.59) rotate(-45)"/><circle class="social-b" cx="5.25" cy="22.2" r="3.59" transform="translate(-16.54 15.45) rotate(-59.46)"/><circle class="social-b" cx="16.01" cy="28.41" r="3.59"/><circle class="social-b" cx="26.74" cy="22.21" r="3.59" transform="translate(-5.33 8.81) rotate(-17.04)"/><circle class="social-b" cx="26.75" cy="9.8" r="3.59" transform="translate(0.9 21.78) rotate(-45)"/></g></svg>
<svg viewBox="0 0 18 18"><g id="screen-reader" class="icon"><defs><style>.sr{fill:#fff;}</style></defs><path class="sr" d="M16.1.87H1.9a1.93,1.93,0,0,0-1.34.55A1.9,1.9,0,0,0,0,2.77v9a1.89,1.89,0,0,0,1.9,1.9H6.5L6,16.44H4.15a.34.34,0,0,0-.23.11.31.31,0,0,0-.1.24.34.34,0,0,0,.33.34h9.7a.34.34,0,0,0,.33-.34.31.31,0,0,0-.1-.24.34.34,0,0,0-.23-.11h-1.8l-.55-2.77h4.6a1.89,1.89,0,0,0,1.9-1.9v-9a1.9,1.9,0,0,0-.56-1.35A1.93,1.93,0,0,0,16.1.87ZM6.65,16.44l.56-2.77h3.58l.56,2.77Zm10.66-4.67A1.21,1.21,0,0,1,16.1,13H1.9A1.21,1.21,0,0,1,.69,11.77V10.9H17.31Zm0-1.56H.69V9.52H2.77l.14,0L3,9.42a.44.44,0,0,0,.08-.11.32.32,0,0,0,0-.14A.31.31,0,0,0,3.1,9L3,8.92a.41.41,0,0,0-.11-.07.34.34,0,0,0-.14,0H.69V2.77A1.21,1.21,0,0,1,1.9,1.56H16.1a1.21,1.21,0,0,1,1.21,1.21Z"/><path class="sr" d="M9,11.25a.69.69,0,0,0-.39.12.64.64,0,0,0-.25.31.68.68,0,0,0,.15.75.71.71,0,0,0,.35.19.68.68,0,0,0,.4,0,.72.72,0,0,0,.32-.25.77.77,0,0,0,.11-.39A.68.68,0,0,0,9,11.25Z"/><path class="sr" d="M4.15,9.11a.64.64,0,0,0,0-.07L4.1,9A.28.28,0,0,0,4,8.89l-.06,0-.06,0H3.74l-.06,0-.06,0-.06,0,0,.05,0,.06a.14.14,0,0,0,0,.07.29.29,0,0,0,0,.13.25.25,0,0,0,0,.07l0,.06,0,.05.06,0,.06,0,.06,0h.14l.06,0,.06,0,0,0,0-.05,0-.06a.64.64,0,0,1,0-.07A.29.29,0,0,0,4.15,9.11Z"/><path class="sr" d="M5.3,7.73a.27.27,0,0,1-.19-.08A.25.25,0,0,1,5,7.47v-2a.27.27,0,0,1,.08-.19.41.41,0,0,1,.19-.08.42.42,0,0,1,.18.08.27.27,0,0,1,.08.19v2a.18.18,0,0,1,0,.1.41.41,0,0,1,0,.09l-.09,0A.18.18,0,0,1,5.3,7.73Zm5.36,1.51H9.6a.41.41,0,0,1-.19-.08A.27.27,0,0,1,9.33,9V8.71L6,7.73a.34.34,0,0,1-.18-.26V5.34L6.49,3a.32.32,0,0,1,.11-.12.24.24,0,0,1,.16-.05h.09l1,.35A.14.14,0,0,1,8,3.34a.16.16,0,0,1,0,.09.14.14,0,0,1,0,.09l-.31,1.2,1.68-.49V4a.34.34,0,0,1,.09-.19.37.37,0,0,1,.18-.08H10.7a.41.41,0,0,1,.19.08A.33.33,0,0,1,11,4V9A.37.37,0,0,1,10.66,9.24ZM7.47,3.61l-.58-.18L6.4,5.07l.67-.17ZM7.38,5.34l-1.11.31V7.29l3.06.93V4.72Zm3-1.11H9.86V8.71h.53Zm2.22.8L11.5,5.6a.26.26,0,1,1-.22-.48l1.11-.58h.13a.2.2,0,0,1,.13,0,.2.2,0,0,1,.09.09.3.3,0,0,1-.13.36Zm-1.2,2.3h.14l1.1.58a.27.27,0,0,1,.14.35.31.31,0,0,1-.36.14l-1.11-.58c-.13,0-.17-.22-.13-.35a.22.22,0,0,1,.09-.1.33.33,0,0,1,.13,0Zm1.33-.62h-.93a.22.22,0,0,1-.22-.26.24.24,0,0,1,.22-.23h.93a.23.23,0,0,1,.23.27.29.29,0,0,1,0,.09.26.26,0,0,1-.12.12Z"/></g></svg>
<svg viewBox="0 0 18 18"><g id="sr-hover" class="icon"><defs><style>.sr-1{fill:#395494;}</style></defs><path class="sr-1" d="M16.1.87H1.9a1.93,1.93,0,0,0-1.34.55A1.9,1.9,0,0,0,0,2.77v9a1.89,1.89,0,0,0,1.9,1.9H6.5L6,16.44H4.15a.34.34,0,0,0-.23.11.31.31,0,0,0-.1.24.34.34,0,0,0,.33.34h9.7a.34.34,0,0,0,.33-.34.31.31,0,0,0-.1-.24.34.34,0,0,0-.23-.11h-1.8l-.55-2.77h4.6a1.89,1.89,0,0,0,1.9-1.9v-9a1.9,1.9,0,0,0-.56-1.35A1.93,1.93,0,0,0,16.1.87ZM6.65,16.44l.56-2.77h3.58l.56,2.77Zm10.66-4.67A1.21,1.21,0,0,1,16.1,13H1.9A1.21,1.21,0,0,1,.69,11.77V10.9H17.31Zm0-1.56H.69V9.52H2.77l.14,0L3,9.42a.44.44,0,0,0,.08-.11.32.32,0,0,0,0-.14A.31.31,0,0,0,3.1,9L3,8.92a.41.41,0,0,0-.11-.07.34.34,0,0,0-.14,0H.69V2.77A1.21,1.21,0,0,1,1.9,1.56H16.1a1.21,1.21,0,0,1,1.21,1.21Z"/><path class="sr-1" d="M9,11.25a.69.69,0,0,0-.39.12.64.64,0,0,0-.25.31.68.68,0,0,0,.15.75.71.71,0,0,0,.35.19.68.68,0,0,0,.4,0,.72.72,0,0,0,.32-.25.77.77,0,0,0,.11-.39A.68.68,0,0,0,9,11.25Z"/><path class="sr-1" d="M4.15,9.11a.64.64,0,0,0,0-.07L4.1,9A.28.28,0,0,0,4,8.89l-.06,0-.06,0H3.74l-.06,0-.06,0-.06,0,0,.05,0,.06a.14.14,0,0,0,0,.07.29.29,0,0,0,0,.13.25.25,0,0,0,0,.07l0,.06,0,.05.06,0,.06,0,.06,0h.14l.06,0,.06,0,0,0,0-.05,0-.06a.64.64,0,0,1,0-.07A.29.29,0,0,0,4.15,9.11Z"/><path class="sr-1" d="M5.3,7.73a.27.27,0,0,1-.19-.08A.25.25,0,0,1,5,7.47v-2a.27.27,0,0,1,.08-.19.41.41,0,0,1,.19-.08.42.42,0,0,1,.18.08.27.27,0,0,1,.08.19v2a.18.18,0,0,1,0,.1.41.41,0,0,1,0,.09l-.09,0A.18.18,0,0,1,5.3,7.73Zm5.36,1.51H9.6a.41.41,0,0,1-.19-.08A.27.27,0,0,1,9.33,9V8.71L6,7.73a.34.34,0,0,1-.18-.26V5.34L6.49,3a.32.32,0,0,1,.11-.12.24.24,0,0,1,.16-.05h.09l1,.35A.14.14,0,0,1,8,3.34a.16.16,0,0,1,0,.09.14.14,0,0,1,0,.09l-.31,1.2,1.68-.49V4a.34.34,0,0,1,.09-.19.37.37,0,0,1,.18-.08H10.7a.41.41,0,0,1,.19.08A.33.33,0,0,1,11,4V9A.37.37,0,0,1,10.66,9.24ZM7.47,3.61l-.58-.18L6.4,5.07l.67-.17ZM7.38,5.34l-1.11.31V7.29l3.06.93V4.72Zm3-1.11H9.86V8.71h.53Zm2.22.8L11.5,5.6a.26.26,0,1,1-.22-.48l1.11-.58h.13a.2.2,0,0,1,.13,0,.2.2,0,0,1,.09.09.3.3,0,0,1-.13.36Zm-1.2,2.3h.14l1.1.58a.27.27,0,0,1,.14.35.31.31,0,0,1-.36.14l-1.11-.58c-.13,0-.17-.22-.13-.35a.22.22,0,0,1,.09-.1.33.33,0,0,1,.13,0Zm1.33-.62h-.93a.22.22,0,0,1-.22-.26.24.24,0,0,1,.22-.23h.93a.23.23,0,0,1,.23.27.29.29,0,0,1,0,.09.26.26,0,0,1-.12.12Z"/></g></svg>
<svg viewBox="0 0 16 16">
   <g class="icon" id="arrow-icon">
	 <rect width="16" height="16" rx="8" fill="white"/>
<path fill-rule="evenodd" clip-rule="evenodd" d="M8.27153 10.1736C8.12144 10.322 7.87895 10.322 7.72847 10.1736L4.16286 6.65284C3.94571 6.43868 3.94571 6.09026 4.16286 5.87572C4.38001 5.66157 4.73244 5.66157 4.94959 5.87572L8.00019 8.88757L11.05 5.87572C11.2676 5.66157 11.62 5.66157 11.8371 5.87572C12.0543 6.09026 12.0543 6.43868 11.8371 6.65284L8.27153 10.1736Z" fill="#374957"/> 
   </g>
</svg>
<svg viewBox="0 0 14 33">
   <g class="icon" id="speak-icon">
	<path d="M6.58988 0.169922C3.8074 0.169922 1.55066 2.43984 1.55066 5.24282V13.0448C1.55066 15.8463 3.80667 18.1177 6.58988 18.1177C9.37309 18.1177 11.6291 15.8477 11.6291 13.0448V5.24282C11.6291 2.44057 9.37236 0.169922 6.58988 0.169922Z" fill="#484A4C"/>
     <path d="M2.32535 18.5102C2.32535 18.3575 2.29527 18.2063 2.23684 18.0652C2.1784 17.9241 2.09275 17.796 1.98478 17.688C1.8768 17.58 1.74862 17.4944 1.60754 17.4359C1.46647 17.3775 1.31526 17.3474 1.16256 17.3474C1.00986 17.3474 0.85866 17.3775 0.717585 17.4359C0.576509 17.4944 0.448324 17.58 0.34035 17.688C0.232375 17.796 0.146725 17.9241 0.0882897 18.0652C0.0298543 18.2063 -0.000221452 18.3575 -0.000221445 18.5102V19.2908C-0.00205142 19.8526 0.106802 20.4093 0.320124 20.9291C0.533447 21.4489 0.84706 21.9216 1.24306 22.3201C1.63906 22.7187 2.10968 23.0354 2.62807 23.2521C3.14645 23.4688 3.70244 23.5813 4.2643 23.5831H5.42708V29.8268H2.71343C2.40271 29.8268 2.10472 29.9503 1.885 30.17C1.66529 30.3897 1.54186 30.6877 1.54186 30.9984C1.54186 31.3091 1.66529 31.6071 1.885 31.8268C2.10472 32.0465 2.40271 32.17 2.71343 32.17H10.4663C10.777 32.17 11.075 32.0465 11.2947 31.8268C11.5144 31.6071 11.6379 31.3091 11.6379 30.9984C11.6379 30.6877 11.5144 30.3897 11.2947 30.17C11.075 29.9503 10.777 29.8268 10.4663 29.8268H7.75265V23.5831H8.91543C9.47729 23.5813 10.0333 23.4688 10.5517 23.2521C11.07 23.0354 11.5407 22.7187 11.9367 22.3201C12.3327 21.9216 12.6463 21.4489 12.8596 20.9291C13.0729 20.4093 13.1818 19.8526 13.18 19.2908V18.5102C13.18 18.2018 13.0574 17.906 12.8394 17.688C12.6213 17.4699 12.3256 17.3474 12.0172 17.3474C11.7088 17.3474 11.413 17.4699 11.195 17.688C10.9769 17.906 10.8544 18.2018 10.8544 18.5102V19.2908C10.8552 19.5461 10.8058 19.7992 10.7089 20.0355C10.6119 20.2718 10.4694 20.4867 10.2894 20.6679C10.1094 20.8491 9.89554 20.9931 9.65991 21.0916C9.42429 21.1901 9.17156 21.2413 8.91616 21.2422H4.2643C4.0089 21.2413 3.75617 21.1901 3.52055 21.0916C3.28493 20.9931 3.07102 20.8491 2.89104 20.6679C2.71106 20.4867 2.56853 20.2718 2.47159 20.0355C2.37466 19.7992 2.32521 19.5461 2.32608 19.2908L2.32535 18.5102Z" fill="#E16943"/>
 </g>
</svg>
<svg viewBox="0 0 14 14">
   <g class="icon" id="selected-icon">
	<circle cx="7" cy="7" r="6.5" fill="#3D8E2F" stroke="white"/>
<path d="M4 7.4L5.6 9L10 5" stroke="white"/>
 </g>
</svg>
<svg viewBox="0 0 19 19" fill="none">
   <g class="icon" id="high-contrast">
	<path fill-rule="evenodd" clip-rule="evenodd" d="M9.49986 4.07141C6.50419 4.07141 4.07129 6.50432 4.07129 9.49998C4.07129 12.4956 6.50419 14.9286 9.49986 14.9286C12.4955 14.9286 14.9284 12.4956 14.9284 9.49998C14.9284 6.50432 12.4955 4.07141 9.49986 4.07141ZM9.49986 4.97617C11.997 4.97617 14.0237 7.00284 14.0237 9.49998C14.0237 11.9971 11.997 14.0238 9.49986 14.0238C7.00272 14.0238 4.97605 11.9971 4.97605 9.49998C4.97605 7.00284 7.00272 4.97617 9.49986 4.97617Z" fill="white"/>
<path fill-rule="evenodd" clip-rule="evenodd" d="M9.04785 0.452381V2.2619C9.04785 2.51162 9.25052 2.71429 9.50023 2.71429C9.74995 2.71429 9.95261 2.51162 9.95261 2.2619V0.452381C9.95261 0.202667 9.74995 0 9.50023 0C9.25052 0 9.04785 0.202667 9.04785 0.452381Z" fill="white"/>
<path fill-rule="evenodd" clip-rule="evenodd" d="M0.452381 9.95237H2.2619C2.51162 9.95237 2.71429 9.7497 2.71429 9.49999C2.71429 9.25027 2.51162 9.04761 2.2619 9.04761H0.452381C0.202667 9.04761 0 9.25027 0 9.49999C0 9.7497 0.202667 9.95237 0.452381 9.95237Z" fill="white"/>
<path fill-rule="evenodd" clip-rule="evenodd" d="M3.42189 16.2179L4.70213 14.9376C4.87856 14.7612 4.87856 14.4744 4.70213 14.298C4.5257 14.1215 4.23889 14.1215 4.06246 14.298L2.78222 15.5782C2.6058 15.7546 2.6058 16.0405 2.78222 16.2179C2.95956 16.3943 3.24546 16.3943 3.42189 16.2179Z" fill="white"/>
<path fill-rule="evenodd" clip-rule="evenodd" d="M16.2178 15.5782L14.9375 14.298C14.7611 14.1215 14.4743 14.1215 14.2978 14.298C14.1214 14.4744 14.1214 14.7612 14.2978 14.9376L15.5781 16.2179C15.7545 16.3943 16.0404 16.3943 16.2178 16.2179C16.3942 16.0405 16.3942 15.7546 16.2178 15.5782Z" fill="white"/>
<path fill-rule="evenodd" clip-rule="evenodd" d="M9.95261 18.5477V16.7381C9.95261 16.4884 9.74995 16.2858 9.50023 16.2858C9.25052 16.2858 9.04785 16.4884 9.04785 16.7381V18.5477C9.04785 18.7974 9.25052 19.0001 9.50023 19.0001C9.74995 19.0001 9.95261 18.7974 9.95261 18.5477Z" fill="white"/>
<path fill-rule="evenodd" clip-rule="evenodd" d="M16.738 9.95237H18.5475C18.7973 9.95237 18.9999 9.7497 18.9999 9.49999C18.9999 9.25027 18.7973 9.04761 18.5475 9.04761H16.738C16.4883 9.04761 16.2856 9.25027 16.2856 9.49999C16.2856 9.7497 16.4883 9.95237 16.738 9.95237Z" fill="white"/>
<path fill-rule="evenodd" clip-rule="evenodd" d="M14.9375 4.70213L16.2178 3.42189C16.3942 3.24546 16.3942 2.95956 16.2178 2.78222C16.0404 2.6058 15.7545 2.6058 15.5781 2.78222L14.2978 4.06246C14.1214 4.23889 14.1214 4.5257 14.2978 4.70213C14.4743 4.87856 14.7611 4.87856 14.9375 4.70213Z" fill="white"/>
<path fill-rule="evenodd" clip-rule="evenodd" d="M4.70213 4.06246L3.42189 2.78222C3.24546 2.6058 2.95956 2.6058 2.78222 2.78222C2.6058 2.95956 2.6058 3.24546 2.78222 3.42189L4.06246 4.70213C4.23889 4.87856 4.5257 4.87856 4.70213 4.70213C4.87856 4.5257 4.87856 4.23889 4.70213 4.06246Z" fill="white"/>
 </g>
</svg>
<svg viewBox="0 0 19 19" fill="none">
   <g class="icon" id="high-contrast-black">
	<path fill-rule="evenodd" clip-rule="evenodd" d="M9.49986 4.07141C6.50419 4.07141 4.07129 6.50432 4.07129 9.49998C4.07129 12.4956 6.50419 14.9286 9.49986 14.9286C12.4955 14.9286 14.9284 12.4956 14.9284 9.49998C14.9284 6.50432 12.4955 4.07141 9.49986 4.07141ZM9.49986 4.97617C11.997 4.97617 14.0237 7.00284 14.0237 9.49998C14.0237 11.9971 11.997 14.0238 9.49986 14.0238C7.00272 14.0238 4.97605 11.9971 4.97605 9.49998C4.97605 7.00284 7.00272 4.97617 9.49986 4.97617Z" fill="black"/>
<path fill-rule="evenodd" clip-rule="evenodd" d="M9.04785 0.452381V2.2619C9.04785 2.51162 9.25052 2.71429 9.50023 2.71429C9.74995 2.71429 9.95261 2.51162 9.95261 2.2619V0.452381C9.95261 0.202667 9.74995 0 9.50023 0C9.25052 0 9.04785 0.202667 9.04785 0.452381Z" fill="black"/>
<path fill-rule="evenodd" clip-rule="evenodd" d="M0.452381 9.95237H2.2619C2.51162 9.95237 2.71429 9.7497 2.71429 9.49999C2.71429 9.25027 2.51162 9.04761 2.2619 9.04761H0.452381C0.202667 9.04761 0 9.25027 0 9.49999C0 9.7497 0.202667 9.95237 0.452381 9.95237Z" fill="black"/>
<path fill-rule="evenodd" clip-rule="evenodd" d="M3.42189 16.2179L4.70213 14.9376C4.87856 14.7612 4.87856 14.4744 4.70213 14.298C4.5257 14.1215 4.23889 14.1215 4.06246 14.298L2.78222 15.5782C2.6058 15.7546 2.6058 16.0405 2.78222 16.2179C2.95956 16.3943 3.24546 16.3943 3.42189 16.2179Z" fill="black"/>
<path fill-rule="evenodd" clip-rule="evenodd" d="M16.2178 15.5782L14.9375 14.298C14.7611 14.1215 14.4743 14.1215 14.2978 14.298C14.1214 14.4744 14.1214 14.7612 14.2978 14.9376L15.5781 16.2179C15.7545 16.3943 16.0404 16.3943 16.2178 16.2179C16.3942 16.0405 16.3942 15.7546 16.2178 15.5782Z" fill="black"/>
<path fill-rule="evenodd" clip-rule="evenodd" d="M9.95261 18.5477V16.7381C9.95261 16.4884 9.74995 16.2858 9.50023 16.2858C9.25052 16.2858 9.04785 16.4884 9.04785 16.7381V18.5477C9.04785 18.7974 9.25052 19.0001 9.50023 19.0001C9.74995 19.0001 9.95261 18.7974 9.95261 18.5477Z" fill="black"/>
<path fill-rule="evenodd" clip-rule="evenodd" d="M16.738 9.95237H18.5475C18.7973 9.95237 18.9999 9.7497 18.9999 9.49999C18.9999 9.25027 18.7973 9.04761 18.5475 9.04761H16.738C16.4883 9.04761 16.2856 9.25027 16.2856 9.49999C16.2856 9.7497 16.4883 9.95237 16.738 9.95237Z" fill="black"/>
<path fill-rule="evenodd" clip-rule="evenodd" d="M14.9375 4.70213L16.2178 3.42189C16.3942 3.24546 16.3942 2.95956 16.2178 2.78222C16.0404 2.6058 15.7545 2.6058 15.5781 2.78222L14.2978 4.06246C14.1214 4.23889 14.1214 4.5257 14.2978 4.70213C14.4743 4.87856 14.7611 4.87856 14.9375 4.70213Z" fill="black"/>
<path fill-rule="evenodd" clip-rule="evenodd" d="M4.70213 4.06246L3.42189 2.78222C3.24546 2.6058 2.95956 2.6058 2.78222 2.78222C2.6058 2.95956 2.6058 3.24546 2.78222 3.42189L4.06246 4.70213C4.23889 4.87856 4.5257 4.87856 4.70213 4.70213C4.87856 4.5257 4.87856 4.23889 4.70213 4.06246Z" fill="black"/>
 </g>
</svg>
<svg viewBox="0 0 17 17" fill="none">
   <g class="icon" id="dark-contrast">
	<path d="M7.68535 0.00388448C0.69615 0.649758 -2.6006 9.56718 2.41816 14.5859C7.4374 19.605 16.3545 16.3082 17.0004 9.3187C17.068 8.58723 16.2388 8.11995 15.6481 8.55659C13.6287 10.0493 10.7228 9.83256 8.94719 8.05695C7.17152 6.28131 6.95481 3.3755 8.44745 1.35616C8.8841 0.765435 8.41682 -0.0637106 7.68535 0.00388448ZM6.15635 2.08119L6.12612 2.1654C5.29806 4.5873 5.86982 7.3849 7.74455 9.25959L7.91233 9.42162C9.78348 11.1667 12.4881 11.6817 14.8388 10.8779L14.9222 10.8471L14.9171 10.8643C13.2737 15.2219 7.18256 16.9449 3.62079 13.3832C0.113407 9.87589 1.73147 3.91457 5.94362 2.16489L6.15635 2.08119Z" fill="white"/>
<path d="M7.00016 6.50427C6.60016 5.30427 6.83349 2.67094 7.00016 1.50427H5.5L3.5 3.00427L2 4.50427L1 7.00427V10.5043L2.5 13.0043L5 15.0043L8.5 16.0043L12.5 15.0043L14.5 13.0043L15.5 10.5043L14.5 10.0043H12L9.5 9.50427C8.83339 9.00427 7.40016 7.70427 7.00016 6.50427Z" fill="white"/>
 </g>
</svg>
<svg viewBox="0 0 17 17" fill="none">
   <g class="icon" id="dark-contrast-black">
	<path d="M7.68535 0.00388448C0.69615 0.649758 -2.6006 9.56718 2.41816 14.5859C7.4374 19.605 16.3545 16.3082 17.0004 9.3187C17.068 8.58723 16.2388 8.11995 15.6481 8.55659C13.6287 10.0493 10.7228 9.83256 8.94719 8.05695C7.17152 6.28131 6.95481 3.3755 8.44745 1.35616C8.8841 0.765435 8.41682 -0.0637106 7.68535 0.00388448ZM6.15635 2.08119L6.12612 2.1654C5.29806 4.5873 5.86982 7.3849 7.74455 9.25959L7.91233 9.42162C9.78348 11.1667 12.4881 11.6817 14.8388 10.8779L14.9222 10.8471L14.9171 10.8643C13.2737 15.2219 7.18256 16.9449 3.62079 13.3832C0.113407 9.87589 1.73147 3.91457 5.94362 2.16489L6.15635 2.08119Z" fill="#151E2F"/>
    <path d="M7.00016 6.50427C6.60016 5.30427 6.83349 2.67094 7.00016 1.50427H5.5L3.5 3.00427L2 4.50427L1 7.00427V10.5043L2.5 13.0043L5 15.0043L8.5 16.0043L12.5 15.0043L14.5 13.0043L15.5 10.5043L14.5 10.0043H12L9.5 9.50427C8.83339 9.00427 7.40016 7.70427 7.00016 6.50427Z" fill="#151E2F"/>
</g>
</svg>

<svg viewBox="0 0 19 19" fill="none">
   <g class="icon" id="monochrome">
	<path d="M8.48513 0C8.38729 9.48406e-06 8.29345 0.0389505 8.22427 0.108255C8.15509 0.17756 8.11622 0.271547 8.11621 0.369559V16.6304C8.11622 16.7284 8.15509 16.8224 8.22427 16.8917C8.29345 16.9611 8.38729 17 8.48513 17C13.1168 17 16.8611 13.2624 16.9413 8.64147C16.9601 8.59667 16.9699 8.5486 16.9701 8.5C16.9701 3.80996 13.1669 0 8.48513 0ZM8.85404 0.814199C12.9552 1.01751 16.2323 4.3406 16.2323 8.5C16.2323 12.6594 12.9552 15.9825 8.85404 16.1858V0.814199Z" fill="white"/>
	<path d="M8.48499 0C3.80322 0 0 3.80996 0 8.5C0 13.19 3.80322 17 8.48499 17C8.58283 17 8.67666 16.9611 8.74584 16.8917C8.81503 16.8224 8.8539 16.7284 8.85391 16.6304V0.369559C8.8539 0.271547 8.81503 0.17756 8.74584 0.108255C8.67666 0.0389504 8.58283 9.01363e-06 8.48499 0ZM8.11608 0.814199V16.1858C4.01495 15.9825 0.737828 12.6594 0.737828 8.5C0.737828 4.3406 4.01495 1.01751 8.11608 0.814199Z" fill="white"/>
	<path fill-rule="evenodd" clip-rule="evenodd" d="M0.416504 8.13049V8.86962H8.39136V8.13049H0.416504Z" fill="white"/>
	<path fill-rule="evenodd" clip-rule="evenodd" d="M0.794434 5.10461V5.84374H8.39174V5.10461H0.794434Z" fill="white"/>
	<path fill-rule="evenodd" clip-rule="evenodd" d="M2.96436 2.07874V2.81786H8.39141V2.07874H2.96436Z" fill="white"/>
	<path fill-rule="evenodd" clip-rule="evenodd" d="M2.96436 14.1807V14.9198H8.39141V14.1807H2.96436Z" fill="white"/>
	<path fill-rule="evenodd" clip-rule="evenodd" d="M1.26514 11.1548V11.8939H8.39121V11.1548H1.26514Z" fill="white"/>
	</g>
</svg>
<svg viewBox="0 0 19 19" fill="none">
   <g class="icon" id="monochrome-black">
	<path d="M8.48513 0C8.38729 9.48406e-06 8.29345 0.0389505 8.22427 0.108255C8.15509 0.17756 8.11622 0.271547 8.11621 0.369559V16.6304C8.11622 16.7284 8.15509 16.8224 8.22427 16.8917C8.29345 16.9611 8.38729 17 8.48513 17C13.1168 17 16.8611 13.2624 16.9413 8.64147C16.9601 8.59667 16.9699 8.5486 16.9701 8.5C16.9701 3.80996 13.1669 0 8.48513 0ZM8.85404 0.814199C12.9552 1.01751 16.2323 4.3406 16.2323 8.5C16.2323 12.6594 12.9552 15.9825 8.85404 16.1858V0.814199Z" fill="#151E2F"/>
	<path d="M8.48499 0C3.80322 0 0 3.80996 0 8.5C0 13.19 3.80322 17 8.48499 17C8.58283 17 8.67666 16.9611 8.74584 16.8917C8.81503 16.8224 8.8539 16.7284 8.85391 16.6304V0.369559C8.8539 0.271547 8.81503 0.17756 8.74584 0.108255C8.67666 0.0389504 8.58283 9.01363e-06 8.48499 0ZM8.11608 0.814199V16.1858C4.01495 15.9825 0.737828 12.6594 0.737828 8.5C0.737828 4.3406 4.01495 1.01751 8.11608 0.814199Z" fill="#151E2F"/>
	<path fill-rule="evenodd" clip-rule="evenodd" d="M0.416504 8.13049V8.86962H8.39136V8.13049H0.416504Z" fill="#151E2F"/>
	<path fill-rule="evenodd" clip-rule="evenodd" d="M0.794434 5.10461V5.84374H8.39174V5.10461H0.794434Z" fill="#151E2F"/>
	<path fill-rule="evenodd" clip-rule="evenodd" d="M2.96436 2.07874V2.81786H8.39141V2.07874H2.96436Z" fill="#151E2F"/>
	<path fill-rule="evenodd" clip-rule="evenodd" d="M2.96436 14.1807V14.9198H8.39141V14.1807H2.96436Z" fill="#151E2F"/>
	<path fill-rule="evenodd" clip-rule="evenodd" d="M1.26514 11.1548V11.8939H8.39121V11.1548H1.26514Z" fill="#151E2F"/>
	</g>
</svg>

<svg viewBox="0 0 18 14" fill="none">
   <g class="icon" id="screen-reader">
	<path d="M2.20302 10.2562C2.11564 10.1689 2.00066 10.1137 1.87648 10.1183C1.35217 10.1367 0.919842 9.71813 0.919842 9.19842V1.83968C0.919842 1.33377 1.33377 0.919842 1.83968 0.919842H12.8778C13.3837 0.919842 13.7976 1.33377 13.7976 1.83968V5.97897C13.7976 6.23193 14.0046 6.43889 14.2575 6.43889C14.5105 6.43889 14.7175 6.23193 14.7175 5.97897V1.83968C14.7175 0.823258 13.8942 0 12.8778 0H1.83968C0.823258 0 0 0.823258 0 1.83968V9.19842C0 10.1459 0.722076 10.9277 1.67411 11.0289" fill="white"/>
<path d="M1.37984 11.038H5.97905C6.23201 11.038 6.43897 10.831 6.43897 10.5781C6.43897 10.3251 6.23201 10.1182 5.97905 10.1182H1.37984C1.12689 10.1182 0.919922 10.3251 0.919922 10.5781" fill="white"/>
<path d="M11.8157 7.4968L10.1876 8.52242C10.0818 8.57761 9.98984 8.6558 9.91625 8.74318H8.43531C7.83741 8.74318 7.35449 9.2215 7.35449 9.8056V11.3601C7.35449 11.9442 7.83741 12.4225 8.43531 12.4225H9.91625C9.98984 12.5099 10.0772 12.5835 10.1554 12.6249L11.8387 13.6827C11.9905 13.7655 12.1561 13.8023 12.317 13.8023C12.5746 13.8023 12.8367 13.7011 13.0391 13.4988C13.2369 13.3056 13.3289 13.0204 13.3289 12.7445V8.43044C13.3289 8.12229 13.2185 7.81414 12.9839 7.61178C12.6528 7.33123 12.2113 7.28063 11.8065 7.5014L11.8157 7.4968ZM9.6587 11.4981H8.43991C8.35252 11.4981 8.27893 11.4337 8.27893 11.3555V9.801C8.27893 9.72281 8.35252 9.65843 8.43991 9.65843H9.6587V11.4981ZM12.4182 12.9285C12.4182 12.9285 12.4182 12.9745 12.3768 13.0021C12.3584 13.0112 12.3216 13.0296 12.3032 13.0204L10.6107 11.958L10.5785 11.935L10.5371 9.46986L10.5509 9.42387L12.271 8.32925C12.271 8.32925 12.3078 8.31546 12.3216 8.31546C12.3446 8.31546 12.363 8.32466 12.3722 8.32925C12.4136 8.35225 12.4136 8.38904 12.4136 8.40284V12.9285H12.4182Z" fill="white"/>
<path d="M16.2947 7.44603C16.1061 7.27586 15.8164 7.29425 15.6462 7.48282C15.4761 7.67139 15.4944 7.96114 15.683 8.13131C16.4051 8.7752 16.8236 9.69964 16.8236 10.6609C16.8236 11.6221 16.4097 12.5511 15.683 13.195C15.4944 13.3652 15.4761 13.655 15.6462 13.8435C15.7382 13.9447 15.8624 13.9999 15.9912 13.9999C16.1015 13.9999 16.2073 13.9631 16.2947 13.8849C17.2146 13.0663 17.7435 11.8935 17.7435 10.6609C17.7435 9.42829 17.2146 8.26009 16.2947 7.44143V7.44603Z" fill="white"/>
<path d="M14.9104 8.3476C14.7126 8.18663 14.4228 8.21422 14.2619 8.40739C14.1009 8.60056 14.1285 8.89491 14.3217 9.05588C14.8 9.45601 15.0759 10.0401 15.0759 10.6656C15.0759 11.2911 14.8 11.8798 14.3171 12.2799C14.1239 12.4409 14.0963 12.7306 14.2573 12.9284C14.3493 13.0388 14.478 13.094 14.6114 13.094C14.7126 13.094 14.8184 13.0572 14.9058 12.9882C15.6002 12.4133 15.9958 11.567 15.9958 10.6656C15.9958 9.76415 15.6002 8.9225 14.9104 8.3476Z" fill="white"/>
<path d="M10.9367 2.75952H3.26979C2.98924 2.75952 2.75928 2.96649 2.75928 3.21944C2.75928 3.4724 2.98924 3.67936 3.26979 3.67936H10.9367C11.2172 3.67936 11.4472 3.4724 11.4472 3.21944C11.4472 2.96649 11.2172 2.75952 10.9367 2.75952Z" fill="white"/>
<path d="M10.9367 4.59912H3.26979C2.98924 4.59912 2.75928 4.80609 2.75928 5.05904C2.75928 5.312 2.98924 5.51896 3.26979 5.51896H10.9367C11.2172 5.51896 11.4472 5.312 11.4472 5.05904C11.4472 4.80609 11.2172 4.59912 10.9367 4.59912Z" fill="white"/>
<path d="M9.19817 6.43896H3.2192C2.96624 6.43896 2.75928 6.64593 2.75928 6.89889C2.75928 7.15184 2.96624 7.35881 3.2192 7.35881H9.19817C9.45113 7.35881 9.65809 7.15184 9.65809 6.89889C9.65809 6.64593 9.45113 6.43896 9.19817 6.43896Z" fill="white"/>
 </g>
 <g class="icon" id="screen-reader-black">
 <path d="M2.20302 10.2562C2.11564 10.1689 2.00066 10.1137 1.87648 10.1183C1.35217 10.1367 0.919842 9.71813 0.919842 9.19842V1.83968C0.919842 1.33377 1.33377 0.919842 1.83968 0.919842H12.8778C13.3837 0.919842 13.7976 1.33377 13.7976 1.83968V5.97897C13.7976 6.23193 14.0046 6.43889 14.2575 6.43889C14.5105 6.43889 14.7175 6.23193 14.7175 5.97897V1.83968C14.7175 0.823258 13.8942 0 12.8778 0H1.83968C0.823258 0 0 0.823258 0 1.83968V9.19842C0 10.1459 0.722076 10.9277 1.67411 11.0289" fill="#151E2F"/>
<path d="M1.37984 11.038H5.97905C6.23201 11.038 6.43897 10.831 6.43897 10.5781C6.43897 10.3251 6.23201 10.1182 5.97905 10.1182H1.37984C1.12689 10.1182 0.919922 10.3251 0.919922 10.5781" fill="#151E2F"/>
<path d="M11.8157 7.4968L10.1876 8.52242C10.0818 8.57761 9.98984 8.6558 9.91625 8.74318H8.43531C7.83741 8.74318 7.35449 9.2215 7.35449 9.8056V11.3601C7.35449 11.9442 7.83741 12.4225 8.43531 12.4225H9.91625C9.98984 12.5099 10.0772 12.5835 10.1554 12.6249L11.8387 13.6827C11.9905 13.7655 12.1561 13.8023 12.317 13.8023C12.5746 13.8023 12.8367 13.7011 13.0391 13.4988C13.2369 13.3056 13.3289 13.0204 13.3289 12.7445V8.43044C13.3289 8.12229 13.2185 7.81414 12.9839 7.61178C12.6528 7.33123 12.2113 7.28063 11.8065 7.5014L11.8157 7.4968ZM9.6587 11.4981H8.43991C8.35252 11.4981 8.27893 11.4337 8.27893 11.3555V9.801C8.27893 9.72281 8.35252 9.65843 8.43991 9.65843H9.6587V11.4981ZM12.4182 12.9285C12.4182 12.9285 12.4182 12.9745 12.3768 13.0021C12.3584 13.0112 12.3216 13.0296 12.3032 13.0204L10.6107 11.958L10.5785 11.935L10.5371 9.46986L10.5509 9.42387L12.271 8.32925C12.271 8.32925 12.3078 8.31546 12.3216 8.31546C12.3446 8.31546 12.363 8.32466 12.3722 8.32925C12.4136 8.35225 12.4136 8.38904 12.4136 8.40284V12.9285H12.4182Z" fill="#151E2F"/>
<path d="M16.2947 7.44603C16.1061 7.27586 15.8164 7.29425 15.6462 7.48282C15.4761 7.67139 15.4944 7.96114 15.683 8.13131C16.4051 8.7752 16.8236 9.69964 16.8236 10.6609C16.8236 11.6221 16.4097 12.5511 15.683 13.195C15.4944 13.3652 15.4761 13.655 15.6462 13.8435C15.7382 13.9447 15.8624 13.9999 15.9912 13.9999C16.1015 13.9999 16.2073 13.9631 16.2947 13.8849C17.2146 13.0663 17.7435 11.8935 17.7435 10.6609C17.7435 9.42829 17.2146 8.26009 16.2947 7.44143V7.44603Z" fill="#151E2F"/>
<path d="M14.9104 8.3476C14.7126 8.18663 14.4228 8.21422 14.2619 8.40739C14.1009 8.60056 14.1285 8.89491 14.3217 9.05588C14.8 9.45601 15.0759 10.0401 15.0759 10.6656C15.0759 11.2911 14.8 11.8798 14.3171 12.2799C14.1239 12.4409 14.0963 12.7306 14.2573 12.9284C14.3493 13.0388 14.478 13.094 14.6114 13.094C14.7126 13.094 14.8184 13.0572 14.9058 12.9882C15.6002 12.4133 15.9958 11.567 15.9958 10.6656C15.9958 9.76415 15.6002 8.9225 14.9104 8.3476Z" fill="#151E2F"/>
<path d="M10.9367 2.75952H3.26979C2.98924 2.75952 2.75928 2.96649 2.75928 3.21944C2.75928 3.4724 2.98924 3.67936 3.26979 3.67936H10.9367C11.2172 3.67936 11.4472 3.4724 11.4472 3.21944C11.4472 2.96649 11.2172 2.75952 10.9367 2.75952Z" fill="#151E2F"/>
<path d="M10.9367 4.59912H3.26979C2.98924 4.59912 2.75928 4.80609 2.75928 5.05904C2.75928 5.312 2.98924 5.51896 3.26979 5.51896H10.9367C11.2172 5.51896 11.4472 5.312 11.4472 5.05904C11.4472 4.80609 11.2172 4.59912 10.9367 4.59912Z" fill="#151E2F"/>
<path d="M9.19817 6.43896H3.2192C2.96624 6.43896 2.75928 6.64593 2.75928 6.89889C2.75928 7.15184 2.96624 7.35881 3.2192 7.35881H9.19817C9.45113 7.35881 9.65809 7.15184 9.65809 6.89889C9.65809 6.64593 9.45113 6.43896 9.19817 6.43896Z" fill="#151E2F"/>

  </g>
</svg>

<svg viewBox="0 0 20 14" fill="none">
   <g class="icon" id="read-mode">
	<path d="M12.3294 6.16468H16.6447C16.9853 6.16468 17.2612 5.88881 17.2612 5.54821V3.0823C17.2612 2.74169 16.9853 2.46582 16.6447 2.46582H12.3294C11.9888 2.46582 11.7129 2.74169 11.7129 3.0823V5.54821C11.7129 5.88881 11.9888 6.16468 12.3294 6.16468ZM12.9458 3.69877H16.0282V4.93173H12.9458V3.69877Z" fill="white"/>
<path d="M19.1108 0H11.4048C10.8018 0 10.2555 0.248903 9.86364 0.649228C9.47179 0.248903 8.92544 0 8.32244 0H0.616477C0.275874 0 0 0.275874 0 0.616477V12.946C0 13.2866 0.275874 13.5625 0.616477 13.5625H19.1108C19.4514 13.5625 19.7273 13.2866 19.7273 12.946V0.616477C19.7273 0.275874 19.4514 0 19.1108 0ZM1.23295 1.23295H8.32244C8.83219 1.23295 9.24716 1.64792 9.24716 2.15767V12.3295H1.23295V1.23295ZM18.4943 12.3295H10.4801V2.15767C10.4801 1.64792 10.8951 1.23295 11.4048 1.23295H18.4943V12.3295Z" fill="white"/>
<path d="M4.31521 3.69877H6.16464C6.50524 3.69877 6.78112 3.4229 6.78112 3.0823C6.78112 2.74169 6.50524 2.46582 6.16464 2.46582H4.31521C3.9746 2.46582 3.69873 2.74169 3.69873 3.0823C3.69873 3.4229 3.9746 3.69877 4.31521 3.69877Z" fill="white"/>
<path d="M7.39764 4.93188H3.0823C2.74169 4.93188 2.46582 5.20776 2.46582 5.54836C2.46582 5.88897 2.74169 6.16484 3.0823 6.16484H7.39764C7.73824 6.16484 8.01412 5.88897 8.01412 5.54836C8.01412 5.20776 7.73824 4.93188 7.39764 4.93188Z" fill="white"/>
<path d="M7.39764 7.39771H3.0823C2.74169 7.39771 2.46582 7.67358 2.46582 8.01418C2.46582 8.35479 2.74169 8.63066 3.0823 8.63066H7.39764C7.73824 8.63066 8.01412 8.35479 8.01412 8.01418C8.01412 7.67358 7.73824 7.39771 7.39764 7.39771Z" fill="white"/>
<path d="M7.39764 9.86377H3.0823C2.74169 9.86377 2.46582 10.1396 2.46582 10.4802C2.46582 10.8209 2.74169 11.0967 3.0823 11.0967H7.39764C7.73824 11.0967 8.01412 10.8209 8.01412 10.4802C8.01412 10.1396 7.73824 9.86377 7.39764 9.86377Z" fill="white"/>
<path d="M12.3294 11.0967H16.6447C16.9853 11.0967 17.2612 10.8209 17.2612 10.4802C17.2612 10.1396 16.9853 9.86377 16.6447 9.86377H12.3294C11.9888 9.86377 11.7129 10.1396 11.7129 10.4802C11.7129 10.8209 11.9888 11.0967 12.3294 11.0967Z" fill="white"/>
<path d="M12.3294 8.63066H16.6447C16.9853 8.63066 17.2612 8.35479 17.2612 8.01418C17.2612 7.67358 16.9853 7.39771 16.6447 7.39771H12.3294C11.9888 7.39771 11.7129 7.67358 11.7129 8.01418C11.7129 8.35479 11.9888 8.63066 12.3294 8.63066Z" fill="white"/>
 </g>
 <g class="icon" id="read-mode-black">
	<path d="M12.3294 6.16468H16.6447C16.9853 6.16468 17.2612 5.88881 17.2612 5.54821V3.0823C17.2612 2.74169 16.9853 2.46582 16.6447 2.46582H12.3294C11.9888 2.46582 11.7129 2.74169 11.7129 3.0823V5.54821C11.7129 5.88881 11.9888 6.16468 12.3294 6.16468ZM12.9458 3.69877H16.0282V4.93173H12.9458V3.69877Z" fill="#151E2F"/>
<path d="M19.1108 0H11.4048C10.8018 0 10.2555 0.248903 9.86364 0.649228C9.47179 0.248903 8.92544 0 8.32244 0H0.616477C0.275874 0 0 0.275874 0 0.616477V12.946C0 13.2866 0.275874 13.5625 0.616477 13.5625H19.1108C19.4514 13.5625 19.7273 13.2866 19.7273 12.946V0.616477C19.7273 0.275874 19.4514 0 19.1108 0ZM1.23295 1.23295H8.32244C8.83219 1.23295 9.24716 1.64792 9.24716 2.15767V12.3295H1.23295V1.23295ZM18.4943 12.3295H10.4801V2.15767C10.4801 1.64792 10.8951 1.23295 11.4048 1.23295H18.4943V12.3295Z" fill="#151E2F"/>
<path d="M4.31521 3.69877H6.16464C6.50524 3.69877 6.78112 3.4229 6.78112 3.0823C6.78112 2.74169 6.50524 2.46582 6.16464 2.46582H4.31521C3.9746 2.46582 3.69873 2.74169 3.69873 3.0823C3.69873 3.4229 3.9746 3.69877 4.31521 3.69877Z" fill="#151E2F"/>
<path d="M7.39764 4.93188H3.0823C2.74169 4.93188 2.46582 5.20776 2.46582 5.54836C2.46582 5.88897 2.74169 6.16484 3.0823 6.16484H7.39764C7.73824 6.16484 8.01412 5.88897 8.01412 5.54836C8.01412 5.20776 7.73824 4.93188 7.39764 4.93188Z" fill="#151E2F"/>
<path d="M7.39764 7.39771H3.0823C2.74169 7.39771 2.46582 7.67358 2.46582 8.01418C2.46582 8.35479 2.74169 8.63066 3.0823 8.63066H7.39764C7.73824 8.63066 8.01412 8.35479 8.01412 8.01418C8.01412 7.67358 7.73824 7.39771 7.39764 7.39771Z" fill="#151E2F"/>
<path d="M7.39764 9.86377H3.0823C2.74169 9.86377 2.46582 10.1396 2.46582 10.4802C2.46582 10.8209 2.74169 11.0967 3.0823 11.0967H7.39764C7.73824 11.0967 8.01412 10.8209 8.01412 10.4802C8.01412 10.1396 7.73824 9.86377 7.39764 9.86377Z" fill="#151E2F"/>
<path d="M12.3294 11.0967H16.6447C16.9853 11.0967 17.2612 10.8209 17.2612 10.4802C17.2612 10.1396 16.9853 9.86377 16.6447 9.86377H12.3294C11.9888 9.86377 11.7129 10.1396 11.7129 10.4802C11.7129 10.8209 11.9888 11.0967 12.3294 11.0967Z" fill="#151E2F"/>
<path d="M12.3294 8.63066H16.6447C16.9853 8.63066 17.2612 8.35479 17.2612 8.01418C17.2612 7.67358 16.9853 7.39771 16.6447 7.39771H12.3294C11.9888 7.39771 11.7129 7.67358 11.7129 8.01418C11.7129 8.35479 11.9888 8.63066 12.3294 8.63066Z" fill="#151E2F"/>
</g>
</svg>

<svg viewBox="0 0 26 26" fill="none">
   <g class="icon" id="keyboard">
	<rect x="7.5" y="9.5" width="7" height="7" transform="rotate(90 7.5 9.5)" stroke="white"/>
	<path d="M5 11.5L3.5 13L5 14.5" stroke="white" stroke-width="0.5"/>
	<rect x="0.5" y="0.5" width="7" height="7" transform="matrix(4.37114e-08 1 1 -4.37114e-08 18 9)" stroke="white"/>
	<path d="M21 11.5L22.5 13L21 14.5" stroke="white" stroke-width="0.5"/>
	<rect x="9.5" y="9.5" width="7" height="7" stroke="white"/>
	<path d="M11.5 12L13 13.5L14.5 12" stroke="white" stroke-width="0.5"/>
	<rect x="0.5" y="-0.5" width="7" height="7" transform="matrix(1 0 0 -1 9 7)" stroke="white"/>
	<path d="M11.5 5L13 3.5L14.5 5" stroke="white" stroke-width="0.5"/>
	<rect x="9.5" y="18.5" width="7" height="7" stroke="white"/>
	<path d="M11.5 21L13 22.5L14.5 21" stroke="white" stroke-width="0.5"/>
	</g>
	<g class="icon" id="keyboard-black">
	<rect x="7.5" y="9.5" width="7" height="7" transform="rotate(90 7.5 9.5)" stroke="black"/>
	<path d="M5 11.5L3.5 13L5 14.5" stroke="#272727" stroke-width="0.5"/>
	<rect x="0.5" y="0.5" width="7" height="7" transform="matrix(4.37114e-08 1 1 -4.37114e-08 18 9)" stroke="black"/>
	<path d="M21 11.5L22.5 13L21 14.5" stroke="#272727" stroke-width="0.5"/>
	<rect x="9.5" y="9.5" width="7" height="7" stroke="black"/>
	<path d="M11.5 12L13 13.5L14.5 12" stroke="#272727" stroke-width="0.5"/>
	<rect x="0.5" y="-0.5" width="7" height="7" transform="matrix(1 0 0 -1 9 7)" stroke="black"/>
	<path d="M11.5 5L13 3.5L14.5 5" stroke="#272727" stroke-width="0.5"/>
	<rect x="9.5" y="18.5" width="7" height="7" stroke="black"/>
	<path d="M11.5 21L13 22.5L14.5 21" stroke="#272727" stroke-width="0.5"/>
	</g>
</svg>

<svg viewBox="0 0 14 12" fill="none">
   <g class="icon" id="increase">
	<path d="M1 7L7 1L13 7" stroke="white"/>
    <path d="M1 11L7 5L13 11" stroke="white"/>
   </g>
   <g class="icon" id="increase-black">
	 <path d="M1 7L7 1L13 7" stroke="#272727"/>
     <path d="M1 11L7 5L13 11" stroke="#272727"/>
   </g>
</svg>

<svg viewBox="0 0 14 12" fill="none">
   <g class="icon" id="decrease">
	<path d="M1 5L7 11L13 5" stroke="white"/>
	<path d="M1 1L7 7L13 1" stroke="white"/>
   </g>
   <g class="icon" id="decrease-black">
	<path d="M1 5L7 11L13 5" stroke="#272727"/>
     <path d="M1 1L7 7L13 1" stroke="#272727"/>
   </g>
</svg>
<svg viewBox="0 0 9 2" fill="none">
   <g class="icon" id="minus">
	<path d="M1 1H8" stroke="white" stroke-linecap="round"/>
 </g>
</svg>
<svg viewBox="0 0 9 9" fill="none">
   <g class="icon" id="plus">
	<path d="M1 4.5H8" stroke="white" stroke-linecap="round"/>
	<path d="M4.5 1L4.5 8" stroke="white" stroke-linecap="round"/>
	</g>
</svg>
<svg viewBox="0 0 10 10" fill="none">
   <g class="icon" id="close">
	<path d="M8.8633 0.828996L9.70983 1.67553L6.11606 5.26929L9.70983 8.86306L8.8633 9.70959L5.26953 6.11582L1.67577 9.70959L0.829234 8.86306L4.423 5.26929L0.829234 1.67553L1.67577 0.828995L5.26953 4.42276L8.8633 0.828996Z" fill="white"/>

 </g>
</svg>
<svg viewBox="0 0 15 15" fill="none">
   <g class="icon" id="reset">
	<path d="M7.5 0C5.48446 0 3.59365 0.799734 2.19669 2.19669C1.94467 2.44871 1.71125 2.71786 1.49808 3.0019L1.5 1.5C1.5 1.11537 1.21046 0.798359 0.837456 0.755035L0.75 0.75C0.365373 0.75 0.0483589 1.03954 0.0050354 1.41254L0 1.5V5.25C0 5.63463 0.28954 5.95164 0.662544 5.99496L0.75 6H4.5C4.91421 6 5.25 5.66421 5.25 5.25C5.25 4.86537 4.96046 4.54836 4.58746 4.50504L4.5 4.5L2.30246 4.50016C2.56461 4.04704 2.88568 3.62903 3.25735 3.25735C4.3758 2.13891 5.88637 1.5 7.5 1.5C10.8137 1.5 13.5 4.18629 13.5 7.5C13.5 10.8137 10.8137 13.5 7.5 13.5C5.88637 13.5 4.3758 12.8611 3.25735 11.7426C2.70015 11.1854 2.25668 10.5241 1.95495 9.79642C1.80493 9.43464 1.69068 9.05832 1.61421 8.67176C1.53383 8.26542 1.13927 8.00118 0.732925 8.08157C0.326587 8.16195 0.0623484 8.55651 0.142731 8.96285C0.238462 9.44678 0.381525 9.91803 0.569344 10.371C0.946736 11.2811 1.50085 12.1075 2.19669 12.8033C3.59365 14.2003 5.48446 15 7.5 15C11.6421 15 15 11.6421 15 7.5C15 3.35786 11.6421 0 7.5 0Z" fill="white"/>
   </g>
   <g class="icon" id="reset-black">
	<path d="M7.5 0C5.48446 0 3.59365 0.799734 2.19669 2.19669C1.94467 2.44871 1.71125 2.71786 1.49808 3.0019L1.5 1.5C1.5 1.11537 1.21046 0.798359 0.837456 0.755035L0.75 0.75C0.365373 0.75 0.0483589 1.03954 0.0050354 1.41254L0 1.5V5.25C0 5.63463 0.28954 5.95164 0.662544 5.99496L0.75 6H4.5C4.91421 6 5.25 5.66421 5.25 5.25C5.25 4.86537 4.96046 4.54836 4.58746 4.50504L4.5 4.5L2.30246 4.50016C2.56461 4.04704 2.88568 3.62903 3.25735 3.25735C4.3758 2.13891 5.88637 1.5 7.5 1.5C10.8137 1.5 13.5 4.18629 13.5 7.5C13.5 10.8137 10.8137 13.5 7.5 13.5C5.88637 13.5 4.3758 12.8611 3.25735 11.7426C2.70015 11.1854 2.25668 10.5241 1.95495 9.79642C1.80493 9.43464 1.69068 9.05832 1.61421 8.67176C1.53383 8.26542 1.13927 8.00118 0.732925 8.08157C0.326587 8.16195 0.0623484 8.55651 0.142731 8.96285C0.238462 9.44678 0.381525 9.91803 0.569344 10.371C0.946736 11.2811 1.50085 12.1075 2.19669 12.8033C3.59365 14.2003 5.48446 15 7.5 15C11.6421 15 15 11.6421 15 7.5C15 3.35786 11.6421 0 7.5 0Z" fill="black"/>
  </g>
</svg>
<svg viewBox="0 0 11 9" fill="none">
   <g class="icon" id="readable-text">
	<path d="M6.9562 8.00005V1.25705H4.3162V0.300049H10.6852V1.25705H8.0452V8.00005H6.9562Z" fill="white"/>
     <path d="M2.10457 9.00005V4.09605H0.18457V3.40005H4.81657V4.09605H2.89657V9.00005H2.10457Z" fill="white"/>
   </g>
   <g class="icon" id="readable-text-black">
	 <path d="M6.95597 10V3.257H4.31597V2.3H10.685V3.257H8.04497V10H6.95597Z" fill="black"/>
     <path d="M2.10434 11V6.096H0.184344V5.4H4.81634V6.096H2.89634V11H2.10434Z" fill="black"/>
   </g>
</svg>


</svg>